<?xml version="1.0" encoding="utf-8" standalone="no"?>
<!DOCTYPE svg PUBLIC "-//W3C//DTD SVG 1.1//EN"
  "http://www.w3.org/Graphics/SVG/1.1/DTD/svg11.dtd">
<svg xmlns:xlink="http://www.w3.org/1999/xlink" width="381.6pt" height="244.8pt" viewBox="0 0 381.6 244.8" xmlns="http://www.w3.org/2000/svg" version="1.1">
 <metadata>
  <rdf:RDF xmlns:dc="http://purl.org/dc/elements/1.1/" xmlns:cc="http://creativecommons.org/ns#" xmlns:rdf="http://www.w3.org/1999/02/22-rdf-syntax-ns#">
   <cc:Work>
    <dc:type rdf:resource="http://purl.org/dc/dcmitype/StillImage"/>
    <dc:date>2025-11-01T11:25:05.068750</dc:date>
    <dc:format>image/svg+xml</dc:format>
    <dc:creator>
     <cc:Agent>
      <dc:title>Matplotlib v3.6.3, https://matplotlib.org/</dc:title>
     </cc:Agent>
    </dc:creator>
   </cc:Work>
  </rdf:RDF>
 </metadata>
 <defs>
  <style type="text/css">*{stroke-linejoin: round; stroke-linecap: butt}</style>
 </defs>
 <g id="figure_1">
  <g id="patch_1">
   <path d="M 0 244.8 
L 381.6 244.8 
L 381.6 0 
L 0 0 
z
" style="fill: #ffffff"/>
  </g>
  <g id="axes_1">
   <g id="patch_2">
    <path d="M 54.2 202.84 
L 370.8 202.84 
L 370.8 26.88 
L 54.2 26.88 
z
" style="fill: #ffffff"/>
   </g>
   <g id="matplotlib.axis_1">
    <g id="xtick_1">
     <g id="line2d_1">
      <defs>
       <path id="m1562248573" d="M 0 0 
L 0 3.5 
" style="stroke: #000000; stroke-width: 0.8"/>
      </defs>
      <g>
       <use xlink:href="#m1562248573" x="54.2" y="202.84" style="stroke: #000000; stroke-width: 0.8"/>
      </g>
     </g>
     <g id="text_1">
      <!-- 0 -->
      <g transform="translate(51.01875 217.438437) scale(0.1 -0.1)">
       <defs>
        <path id="DejaVuSans-30" d="M 2034 4250 
Q 1547 4250 1301 3770 
Q 1056 3291 1056 2328 
Q 1056 1369 1301 889 
Q 1547 409 2034 409 
Q 2525 409 2770 889 
Q 3016 1369 3016 2328 
Q 3016 3291 2770 3770 
Q 2525 4250 2034 4250 
z
M 2034 4750 
Q 2819 4750 3233 4129 
Q 3647 3509 3647 2328 
Q 3647 1150 3233 529 
Q 2819 -91 2034 -91 
Q 1250 -91 836 529 
Q 422 1150 422 2328 
Q 422 3509 836 4129 
Q 1250 4750 2034 4750 
z
" transform="scale(0.015625)"/>
       </defs>
       <use xlink:href="#DejaVuSans-30"/>
      </g>
     </g>
    </g>
    <g id="xtick_2">
     <g id="line2d_2">
      <g>
       <use xlink:href="#m1562248573" x="120.158333" y="202.84" style="stroke: #000000; stroke-width: 0.8"/>
      </g>
     </g>
     <g id="text_2">
      <!-- 5 -->
      <g transform="translate(116.977083 217.438437) scale(0.1 -0.1)">
       <defs>
        <path id="DejaVuSans-35" d="M 691 4666 
L 3169 4666 
L 3169 4134 
L 1269 4134 
L 1269 2991 
Q 1406 3038 1543 3061 
Q 1681 3084 1819 3084 
Q 2600 3084 3056 2656 
Q 3513 2228 3513 1497 
Q 3513 744 3044 326 
Q 2575 -91 1722 -91 
Q 1428 -91 1123 -41 
Q 819 9 494 109 
L 494 744 
Q 775 591 1075 516 
Q 1375 441 1709 441 
Q 2250 441 2565 725 
Q 2881 1009 2881 1497 
Q 2881 1984 2565 2268 
Q 2250 2553 1709 2553 
Q 1456 2553 1204 2497 
Q 953 2441 691 2322 
L 691 4666 
z
" transform="scale(0.015625)"/>
       </defs>
       <use xlink:href="#DejaVuSans-35"/>
      </g>
     </g>
    </g>
    <g id="xtick_3">
     <g id="line2d_3">
      <g>
       <use xlink:href="#m1562248573" x="186.116667" y="202.84" style="stroke: #000000; stroke-width: 0.8"/>
      </g>
     </g>
     <g id="text_3">
      <!-- 10 -->
      <g transform="translate(179.754167 217.438437) scale(0.1 -0.1)">
       <defs>
        <path id="DejaVuSans-31" d="M 794 531 
L 1825 531 
L 1825 4091 
L 703 3866 
L 703 4441 
L 1819 4666 
L 2450 4666 
L 2450 531 
L 3481 531 
L 3481 0 
L 794 0 
L 794 531 
z
" transform="scale(0.015625)"/>
       </defs>
       <use xlink:href="#DejaVuSans-31"/>
       <use xlink:href="#DejaVuSans-30" x="63.623047"/>
      </g>
     </g>
    </g>
    <g id="xtick_4">
     <g id="line2d_4">
      <g>
       <use xlink:href="#m1562248573" x="252.075" y="202.84" style="stroke: #000000; stroke-width: 0.8"/>
      </g>
     </g>
     <g id="text_4">
      <!-- 15 -->
      <g transform="translate(245.7125 217.438437) scale(0.1 -0.1)">
       <use xlink:href="#DejaVuSans-31"/>
       <use xlink:href="#DejaVuSans-35" x="63.623047"/>
      </g>
     </g>
    </g>
    <g id="xtick_5">
     <g id="line2d_5">
      <g>
       <use xlink:href="#m1562248573" x="318.033333" y="202.84" style="stroke: #000000; stroke-width: 0.8"/>
      </g>
     </g>
     <g id="text_5">
      <!-- 20 -->
      <g transform="translate(311.670833 217.438437) scale(0.1 -0.1)">
       <defs>
        <path id="DejaVuSans-32" d="M 1228 531 
L 3431 531 
L 3431 0 
L 469 0 
L 469 531 
Q 828 903 1448 1529 
Q 2069 2156 2228 2338 
Q 2531 2678 2651 2914 
Q 2772 3150 2772 3378 
Q 2772 3750 2511 3984 
Q 2250 4219 1831 4219 
Q 1534 4219 1204 4116 
Q 875 4013 500 3803 
L 500 4441 
Q 881 4594 1212 4672 
Q 1544 4750 1819 4750 
Q 2544 4750 2975 4387 
Q 3406 4025 3406 3419 
Q 3406 3131 3298 2873 
Q 3191 2616 2906 2266 
Q 2828 2175 2409 1742 
Q 1991 1309 1228 531 
z
" transform="scale(0.015625)"/>
       </defs>
       <use xlink:href="#DejaVuSans-32"/>
       <use xlink:href="#DejaVuSans-30" x="63.623047"/>
      </g>
     </g>
    </g>
    <g id="text_6">
     <!-- Time (h) -->
     <g transform="translate(191.607031 231.116562) scale(0.1 -0.1)">
      <defs>
       <path id="DejaVuSans-54" d="M -19 4666 
L 3928 4666 
L 3928 4134 
L 2272 4134 
L 2272 0 
L 1638 0 
L 1638 4134 
L -19 4134 
L -19 4666 
z
" transform="scale(0.015625)"/>
       <path id="DejaVuSans-69" d="M 603 3500 
L 1178 3500 
L 1178 0 
L 603 0 
L 603 3500 
z
M 603 4863 
L 1178 4863 
L 1178 4134 
L 603 4134 
L 603 4863 
z
" transform="scale(0.015625)"/>
       <path id="DejaVuSans-6d" d="M 3328 2828 
Q 3544 3216 3844 3400 
Q 4144 3584 4550 3584 
Q 5097 3584 5394 3201 
Q 5691 2819 5691 2113 
L 5691 0 
L 5113 0 
L 5113 2094 
Q 5113 2597 4934 2840 
Q 4756 3084 4391 3084 
Q 3944 3084 3684 2787 
Q 3425 2491 3425 1978 
L 3425 0 
L 2847 0 
L 2847 2094 
Q 2847 2600 2669 2842 
Q 2491 3084 2119 3084 
Q 1678 3084 1418 2786 
Q 1159 2488 1159 1978 
L 1159 0 
L 581 0 
L 581 3500 
L 1159 3500 
L 1159 2956 
Q 1356 3278 1631 3431 
Q 1906 3584 2284 3584 
Q 2666 3584 2933 3390 
Q 3200 3197 3328 2828 
z
" transform="scale(0.015625)"/>
       <path id="DejaVuSans-65" d="M 3597 1894 
L 3597 1613 
L 953 1613 
Q 991 1019 1311 708 
Q 1631 397 2203 397 
Q 2534 397 2845 478 
Q 3156 559 3463 722 
L 3463 178 
Q 3153 47 2828 -22 
Q 2503 -91 2169 -91 
Q 1331 -91 842 396 
Q 353 884 353 1716 
Q 353 2575 817 3079 
Q 1281 3584 2069 3584 
Q 2775 3584 3186 3129 
Q 3597 2675 3597 1894 
z
M 3022 2063 
Q 3016 2534 2758 2815 
Q 2500 3097 2075 3097 
Q 1594 3097 1305 2825 
Q 1016 2553 972 2059 
L 3022 2063 
z
" transform="scale(0.015625)"/>
       <path id="DejaVuSans-20" transform="scale(0.015625)"/>
       <path id="DejaVuSans-28" d="M 1984 4856 
Q 1566 4138 1362 3434 
Q 1159 2731 1159 2009 
Q 1159 1288 1364 580 
Q 1569 -128 1984 -844 
L 1484 -844 
Q 1016 -109 783 600 
Q 550 1309 550 2009 
Q 550 2706 781 3412 
Q 1013 4119 1484 4856 
L 1984 4856 
z
" transform="scale(0.015625)"/>
       <path id="DejaVuSans-68" d="M 3513 2113 
L 3513 0 
L 2938 0 
L 2938 2094 
Q 2938 2591 2744 2837 
Q 2550 3084 2163 3084 
Q 1697 3084 1428 2787 
Q 1159 2491 1159 1978 
L 1159 0 
L 581 0 
L 581 4863 
L 1159 4863 
L 1159 2956 
Q 1366 3272 1645 3428 
Q 1925 3584 2291 3584 
Q 2894 3584 3203 3211 
Q 3513 2838 3513 2113 
z
" transform="scale(0.015625)"/>
       <path id="DejaVuSans-29" d="M 513 4856 
L 1013 4856 
Q 1481 4119 1714 3412 
Q 1947 2706 1947 2009 
Q 1947 1309 1714 600 
Q 1481 -109 1013 -844 
L 513 -844 
Q 928 -128 1133 580 
Q 1338 1288 1338 2009 
Q 1338 2731 1133 3434 
Q 928 4138 513 4856 
z
" transform="scale(0.015625)"/>
      </defs>
      <use xlink:href="#DejaVuSans-54"/>
      <use xlink:href="#DejaVuSans-69" x="57.958984"/>
      <use xlink:href="#DejaVuSans-6d" x="85.742188"/>
      <use xlink:href="#DejaVuSans-65" x="183.154297"/>
      <use xlink:href="#DejaVuSans-20" x="244.677734"/>
      <use xlink:href="#DejaVuSans-28" x="276.464844"/>
      <use xlink:href="#DejaVuSans-68" x="315.478516"/>
      <use xlink:href="#DejaVuSans-29" x="378.857422"/>
     </g>
    </g>
   </g>
   <g id="matplotlib.axis_2">
    <g id="ytick_1">
     <g id="line2d_6">
      <path d="M 54.2 202.84 
L 370.8 202.84 
" clip-path="url(#p0a06ec6466)" style="fill: none; stroke-dasharray: 2.22,0.96; stroke-dashoffset: 0; stroke: #b0b0b0; stroke-opacity: 0.5; stroke-width: 0.6"/>
     </g>
     <g id="line2d_7">
      <defs>
       <path id="mfa46a6e1b0" d="M 0 0 
L -3.5 0 
" style="stroke: #000000; stroke-width: 0.8"/>
      </defs>
      <g>
       <use xlink:href="#mfa46a6e1b0" x="54.2" y="202.84" style="stroke: #000000; stroke-width: 0.8"/>
      </g>
     </g>
     <g id="text_7">
      <!-- 0.00 -->
      <g transform="translate(24.934375 206.639219) scale(0.1 -0.1)">
       <defs>
        <path id="DejaVuSans-2e" d="M 684 794 
L 1344 794 
L 1344 0 
L 684 0 
L 684 794 
z
" transform="scale(0.015625)"/>
       </defs>
       <use xlink:href="#DejaVuSans-30"/>
       <use xlink:href="#DejaVuSans-2e" x="63.623047"/>
       <use xlink:href="#DejaVuSans-30" x="95.410156"/>
       <use xlink:href="#DejaVuSans-30" x="159.033203"/>
      </g>
     </g>
    </g>
    <g id="ytick_2">
     <g id="line2d_8">
      <path d="M 54.2 179.814022 
L 370.8 179.814022 
" clip-path="url(#p0a06ec6466)" style="fill: none; stroke-dasharray: 2.22,0.96; stroke-dashoffset: 0; stroke: #b0b0b0; stroke-opacity: 0.5; stroke-width: 0.6"/>
     </g>
     <g id="line2d_9">
      <g>
       <use xlink:href="#mfa46a6e1b0" x="54.2" y="179.814022" style="stroke: #000000; stroke-width: 0.8"/>
      </g>
     </g>
     <g id="text_8">
      <!-- 0.25 -->
      <g transform="translate(24.934375 183.61324) scale(0.1 -0.1)">
       <use xlink:href="#DejaVuSans-30"/>
       <use xlink:href="#DejaVuSans-2e" x="63.623047"/>
       <use xlink:href="#DejaVuSans-32" x="95.410156"/>
       <use xlink:href="#DejaVuSans-35" x="159.033203"/>
      </g>
     </g>
    </g>
    <g id="ytick_3">
     <g id="line2d_10">
      <path d="M 54.2 156.788043 
L 370.8 156.788043 
" clip-path="url(#p0a06ec6466)" style="fill: none; stroke-dasharray: 2.22,0.96; stroke-dashoffset: 0; stroke: #b0b0b0; stroke-opacity: 0.5; stroke-width: 0.6"/>
     </g>
     <g id="line2d_11">
      <g>
       <use xlink:href="#mfa46a6e1b0" x="54.2" y="156.788043" style="stroke: #000000; stroke-width: 0.8"/>
      </g>
     </g>
     <g id="text_9">
      <!-- 0.50 -->
      <g transform="translate(24.934375 160.587262) scale(0.1 -0.1)">
       <use xlink:href="#DejaVuSans-30"/>
       <use xlink:href="#DejaVuSans-2e" x="63.623047"/>
       <use xlink:href="#DejaVuSans-35" x="95.410156"/>
       <use xlink:href="#DejaVuSans-30" x="159.033203"/>
      </g>
     </g>
    </g>
    <g id="ytick_4">
     <g id="line2d_12">
      <path d="M 54.2 133.762065 
L 370.8 133.762065 
" clip-path="url(#p0a06ec6466)" style="fill: none; stroke-dasharray: 2.22,0.96; stroke-dashoffset: 0; stroke: #b0b0b0; stroke-opacity: 0.5; stroke-width: 0.6"/>
     </g>
     <g id="line2d_13">
      <g>
       <use xlink:href="#mfa46a6e1b0" x="54.2" y="133.762065" style="stroke: #000000; stroke-width: 0.8"/>
      </g>
     </g>
     <g id="text_10">
      <!-- 0.75 -->
      <g transform="translate(24.934375 137.561284) scale(0.1 -0.1)">
       <defs>
        <path id="DejaVuSans-37" d="M 525 4666 
L 3525 4666 
L 3525 4397 
L 1831 0 
L 1172 0 
L 2766 4134 
L 525 4134 
L 525 4666 
z
" transform="scale(0.015625)"/>
       </defs>
       <use xlink:href="#DejaVuSans-30"/>
       <use xlink:href="#DejaVuSans-2e" x="63.623047"/>
       <use xlink:href="#DejaVuSans-37" x="95.410156"/>
       <use xlink:href="#DejaVuSans-35" x="159.033203"/>
      </g>
     </g>
    </g>
    <g id="ytick_5">
     <g id="line2d_14">
      <path d="M 54.2 110.736087 
L 370.8 110.736087 
" clip-path="url(#p0a06ec6466)" style="fill: none; stroke-dasharray: 2.22,0.96; stroke-dashoffset: 0; stroke: #b0b0b0; stroke-opacity: 0.5; stroke-width: 0.6"/>
     </g>
     <g id="line2d_15">
      <g>
       <use xlink:href="#mfa46a6e1b0" x="54.2" y="110.736087" style="stroke: #000000; stroke-width: 0.8"/>
      </g>
     </g>
     <g id="text_11">
      <!-- 1.00 -->
      <g transform="translate(24.934375 114.535305) scale(0.1 -0.1)">
       <use xlink:href="#DejaVuSans-31"/>
       <use xlink:href="#DejaVuSans-2e" x="63.623047"/>
       <use xlink:href="#DejaVuSans-30" x="95.410156"/>
       <use xlink:href="#DejaVuSans-30" x="159.033203"/>
      </g>
     </g>
    </g>
    <g id="ytick_6">
     <g id="line2d_16">
      <path d="M 54.2 87.710108 
L 370.8 87.710108 
" clip-path="url(#p0a06ec6466)" style="fill: none; stroke-dasharray: 2.22,0.96; stroke-dashoffset: 0; stroke: #b0b0b0; stroke-opacity: 0.5; stroke-width: 0.6"/>
     </g>
     <g id="line2d_17">
      <g>
       <use xlink:href="#mfa46a6e1b0" x="54.2" y="87.710108" style="stroke: #000000; stroke-width: 0.8"/>
      </g>
     </g>
     <g id="text_12">
      <!-- 1.25 -->
      <g transform="translate(24.934375 91.509327) scale(0.1 -0.1)">
       <use xlink:href="#DejaVuSans-31"/>
       <use xlink:href="#DejaVuSans-2e" x="63.623047"/>
       <use xlink:href="#DejaVuSans-32" x="95.410156"/>
       <use xlink:href="#DejaVuSans-35" x="159.033203"/>
      </g>
     </g>
    </g>
    <g id="ytick_7">
     <g id="line2d_18">
      <path d="M 54.2 64.68413 
L 370.8 64.68413 
" clip-path="url(#p0a06ec6466)" style="fill: none; stroke-dasharray: 2.22,0.96; stroke-dashoffset: 0; stroke: #b0b0b0; stroke-opacity: 0.5; stroke-width: 0.6"/>
     </g>
     <g id="line2d_19">
      <g>
       <use xlink:href="#mfa46a6e1b0" x="54.2" y="64.68413" style="stroke: #000000; stroke-width: 0.8"/>
      </g>
     </g>
     <g id="text_13">
      <!-- 1.50 -->
      <g transform="translate(24.934375 68.483349) scale(0.1 -0.1)">
       <use xlink:href="#DejaVuSans-31"/>
       <use xlink:href="#DejaVuSans-2e" x="63.623047"/>
       <use xlink:href="#DejaVuSans-35" x="95.410156"/>
       <use xlink:href="#DejaVuSans-30" x="159.033203"/>
      </g>
     </g>
    </g>
    <g id="ytick_8">
     <g id="line2d_20">
      <path d="M 54.2 41.658151 
L 370.8 41.658151 
" clip-path="url(#p0a06ec6466)" style="fill: none; stroke-dasharray: 2.22,0.96; stroke-dashoffset: 0; stroke: #b0b0b0; stroke-opacity: 0.5; stroke-width: 0.6"/>
     </g>
     <g id="line2d_21">
      <g>
       <use xlink:href="#mfa46a6e1b0" x="54.2" y="41.658151" style="stroke: #000000; stroke-width: 0.8"/>
      </g>
     </g>
     <g id="text_14">
      <!-- 1.75 -->
      <g transform="translate(24.934375 45.45737) scale(0.1 -0.1)">
       <use xlink:href="#DejaVuSans-31"/>
       <use xlink:href="#DejaVuSans-2e" x="63.623047"/>
       <use xlink:href="#DejaVuSans-37" x="95.410156"/>
       <use xlink:href="#DejaVuSans-35" x="159.033203"/>
      </g>
     </g>
    </g>
    <g id="text_15">
     <!-- Plasma concentration (a.u.) -->
     <g transform="translate(18.854687 183.986562) rotate(-90) scale(0.1 -0.1)">
      <defs>
       <path id="DejaVuSans-50" d="M 1259 4147 
L 1259 2394 
L 2053 2394 
Q 2494 2394 2734 2622 
Q 2975 2850 2975 3272 
Q 2975 3691 2734 3919 
Q 2494 4147 2053 4147 
L 1259 4147 
z
M 628 4666 
L 2053 4666 
Q 2838 4666 3239 4311 
Q 3641 3956 3641 3272 
Q 3641 2581 3239 2228 
Q 2838 1875 2053 1875 
L 1259 1875 
L 1259 0 
L 628 0 
L 628 4666 
z
" transform="scale(0.015625)"/>
       <path id="DejaVuSans-6c" d="M 603 4863 
L 1178 4863 
L 1178 0 
L 603 0 
L 603 4863 
z
" transform="scale(0.015625)"/>
       <path id="DejaVuSans-61" d="M 2194 1759 
Q 1497 1759 1228 1600 
Q 959 1441 959 1056 
Q 959 750 1161 570 
Q 1363 391 1709 391 
Q 2188 391 2477 730 
Q 2766 1069 2766 1631 
L 2766 1759 
L 2194 1759 
z
M 3341 1997 
L 3341 0 
L 2766 0 
L 2766 531 
Q 2569 213 2275 61 
Q 1981 -91 1556 -91 
Q 1019 -91 701 211 
Q 384 513 384 1019 
Q 384 1609 779 1909 
Q 1175 2209 1959 2209 
L 2766 2209 
L 2766 2266 
Q 2766 2663 2505 2880 
Q 2244 3097 1772 3097 
Q 1472 3097 1187 3025 
Q 903 2953 641 2809 
L 641 3341 
Q 956 3463 1253 3523 
Q 1550 3584 1831 3584 
Q 2591 3584 2966 3190 
Q 3341 2797 3341 1997 
z
" transform="scale(0.015625)"/>
       <path id="DejaVuSans-73" d="M 2834 3397 
L 2834 2853 
Q 2591 2978 2328 3040 
Q 2066 3103 1784 3103 
Q 1356 3103 1142 2972 
Q 928 2841 928 2578 
Q 928 2378 1081 2264 
Q 1234 2150 1697 2047 
L 1894 2003 
Q 2506 1872 2764 1633 
Q 3022 1394 3022 966 
Q 3022 478 2636 193 
Q 2250 -91 1575 -91 
Q 1294 -91 989 -36 
Q 684 19 347 128 
L 347 722 
Q 666 556 975 473 
Q 1284 391 1588 391 
Q 1994 391 2212 530 
Q 2431 669 2431 922 
Q 2431 1156 2273 1281 
Q 2116 1406 1581 1522 
L 1381 1569 
Q 847 1681 609 1914 
Q 372 2147 372 2553 
Q 372 3047 722 3315 
Q 1072 3584 1716 3584 
Q 2034 3584 2315 3537 
Q 2597 3491 2834 3397 
z
" transform="scale(0.015625)"/>
       <path id="DejaVuSans-63" d="M 3122 3366 
L 3122 2828 
Q 2878 2963 2633 3030 
Q 2388 3097 2138 3097 
Q 1578 3097 1268 2742 
Q 959 2388 959 1747 
Q 959 1106 1268 751 
Q 1578 397 2138 397 
Q 2388 397 2633 464 
Q 2878 531 3122 666 
L 3122 134 
Q 2881 22 2623 -34 
Q 2366 -91 2075 -91 
Q 1284 -91 818 406 
Q 353 903 353 1747 
Q 353 2603 823 3093 
Q 1294 3584 2113 3584 
Q 2378 3584 2631 3529 
Q 2884 3475 3122 3366 
z
" transform="scale(0.015625)"/>
       <path id="DejaVuSans-6f" d="M 1959 3097 
Q 1497 3097 1228 2736 
Q 959 2375 959 1747 
Q 959 1119 1226 758 
Q 1494 397 1959 397 
Q 2419 397 2687 759 
Q 2956 1122 2956 1747 
Q 2956 2369 2687 2733 
Q 2419 3097 1959 3097 
z
M 1959 3584 
Q 2709 3584 3137 3096 
Q 3566 2609 3566 1747 
Q 3566 888 3137 398 
Q 2709 -91 1959 -91 
Q 1206 -91 779 398 
Q 353 888 353 1747 
Q 353 2609 779 3096 
Q 1206 3584 1959 3584 
z
" transform="scale(0.015625)"/>
       <path id="DejaVuSans-6e" d="M 3513 2113 
L 3513 0 
L 2938 0 
L 2938 2094 
Q 2938 2591 2744 2837 
Q 2550 3084 2163 3084 
Q 1697 3084 1428 2787 
Q 1159 2491 1159 1978 
L 1159 0 
L 581 0 
L 581 3500 
L 1159 3500 
L 1159 2956 
Q 1366 3272 1645 3428 
Q 1925 3584 2291 3584 
Q 2894 3584 3203 3211 
Q 3513 2838 3513 2113 
z
" transform="scale(0.015625)"/>
       <path id="DejaVuSans-74" d="M 1172 4494 
L 1172 3500 
L 2356 3500 
L 2356 3053 
L 1172 3053 
L 1172 1153 
Q 1172 725 1289 603 
Q 1406 481 1766 481 
L 2356 481 
L 2356 0 
L 1766 0 
Q 1100 0 847 248 
Q 594 497 594 1153 
L 594 3053 
L 172 3053 
L 172 3500 
L 594 3500 
L 594 4494 
L 1172 4494 
z
" transform="scale(0.015625)"/>
       <path id="DejaVuSans-72" d="M 2631 2963 
Q 2534 3019 2420 3045 
Q 2306 3072 2169 3072 
Q 1681 3072 1420 2755 
Q 1159 2438 1159 1844 
L 1159 0 
L 581 0 
L 581 3500 
L 1159 3500 
L 1159 2956 
Q 1341 3275 1631 3429 
Q 1922 3584 2338 3584 
Q 2397 3584 2469 3576 
Q 2541 3569 2628 3553 
L 2631 2963 
z
" transform="scale(0.015625)"/>
       <path id="DejaVuSans-75" d="M 544 1381 
L 544 3500 
L 1119 3500 
L 1119 1403 
Q 1119 906 1312 657 
Q 1506 409 1894 409 
Q 2359 409 2629 706 
Q 2900 1003 2900 1516 
L 2900 3500 
L 3475 3500 
L 3475 0 
L 2900 0 
L 2900 538 
Q 2691 219 2414 64 
Q 2138 -91 1772 -91 
Q 1169 -91 856 284 
Q 544 659 544 1381 
z
M 1991 3584 
L 1991 3584 
z
" transform="scale(0.015625)"/>
      </defs>
      <use xlink:href="#DejaVuSans-50"/>
      <use xlink:href="#DejaVuSans-6c" x="60.302734"/>
      <use xlink:href="#DejaVuSans-61" x="88.085938"/>
      <use xlink:href="#DejaVuSans-73" x="149.365234"/>
      <use xlink:href="#DejaVuSans-6d" x="201.464844"/>
      <use xlink:href="#DejaVuSans-61" x="298.876953"/>
      <use xlink:href="#DejaVuSans-20" x="360.15625"/>
      <use xlink:href="#DejaVuSans-63" x="391.943359"/>
      <use xlink:href="#DejaVuSans-6f" x="446.923828"/>
      <use xlink:href="#DejaVuSans-6e" x="508.105469"/>
      <use xlink:href="#DejaVuSans-63" x="571.484375"/>
      <use xlink:href="#DejaVuSans-65" x="626.464844"/>
      <use xlink:href="#DejaVuSans-6e" x="687.988281"/>
      <use xlink:href="#DejaVuSans-74" x="751.367188"/>
      <use xlink:href="#DejaVuSans-72" x="790.576172"/>
      <use xlink:href="#DejaVuSans-61" x="831.689453"/>
      <use xlink:href="#DejaVuSans-74" x="892.96875"/>
      <use xlink:href="#DejaVuSans-69" x="932.177734"/>
      <use xlink:href="#DejaVuSans-6f" x="959.960938"/>
      <use xlink:href="#DejaVuSans-6e" x="1021.142578"/>
      <use xlink:href="#DejaVuSans-20" x="1084.521484"/>
      <use xlink:href="#DejaVuSans-28" x="1116.308594"/>
      <use xlink:href="#DejaVuSans-61" x="1155.322266"/>
      <use xlink:href="#DejaVuSans-2e" x="1216.601562"/>
      <use xlink:href="#DejaVuSans-75" x="1248.388672"/>
      <use xlink:href="#DejaVuSans-2e" x="1311.767578"/>
      <use xlink:href="#DejaVuSans-29" x="1343.554688"/>
     </g>
    </g>
   </g>
   <g id="line2d_22">
    <path d="M 54.2 202.84 
L 55.786967 178.123621 
L 57.373935 156.818776 
L 58.960902 138.466548 
L 60.54787 122.669713 
L 62.134837 109.084446 
L 63.721805 97.413139 
L 65.308772 87.398192 
L 66.895739 78.816636 
L 68.482707 71.475473 
L 70.069674 65.20765 
L 71.656642 59.868573 
L 73.243609 55.333085 
L 74.830576 51.492854 
L 76.417544 48.254113 
L 78.004511 45.535698 
L 79.591479 43.267359 
L 81.178446 41.38829 
L 82.765414 39.84586 
L 84.352381 38.594513 
L 85.939348 37.594818 
L 87.526316 36.812648 
L 89.113283 36.218461 
L 91.493734 35.624672 
L 93.874185 35.324849 
L 96.254637 35.260792 
L 99.428571 35.462486 
L 102.602506 35.914398 
L 106.569925 36.733881 
L 111.330827 37.973376 
L 117.678697 39.892712 
L 127.200501 43.055816 
L 175.603008 59.49259 
L 193.853133 65.317951 
L 212.103258 70.908368 
L 230.353383 76.271868 
L 249.396992 81.636298 
L 268.440602 86.773376 
L 288.277694 91.893113 
L 308.114787 96.787017 
L 328.745363 101.647816 
L 350.169424 106.459903 
L 370.8 110.877359 
L 370.8 110.877359 
" clip-path="url(#p0a06ec6466)" style="fill: none; stroke: #4f6d7a; stroke-width: 2.2; stroke-linecap: square"/>
   </g>
   <g id="line2d_23">
    <path d="M 54.2 202.84 
L 55.786967 178.169213 
L 57.373935 156.992222 
L 58.960902 138.8381 
L 60.54787 123.299231 
L 62.134837 110.022802 
L 63.721805 98.703437 
L 65.308772 89.076819 
L 66.895739 80.914169 
L 68.482707 74.017473 
L 70.069674 68.215341 
L 71.656642 63.359432 
L 73.243609 59.321355 
L 74.830576 55.989986 
L 76.417544 53.269147 
L 78.004511 51.075598 
L 79.591479 49.337296 
L 81.178446 47.99189 
L 82.765414 46.985422 
L 84.352381 46.271192 
L 85.939348 45.808787 
L 87.526316 45.563236 
L 89.113283 45.504275 
L 91.493734 45.709386 
L 93.874185 46.202233 
L 96.254637 46.923265 
L 99.428571 48.158162 
L 102.602506 49.626079 
L 106.569925 51.689443 
L 112.124311 54.845196 
L 120.852632 60.097269 
L 139.896241 71.606849 
L 151.005013 78.026026 
L 161.320301 83.730358 
L 171.635589 89.183194 
L 181.950877 94.390001 
L 192.266165 99.359685 
L 203.374937 104.457873 
L 214.483709 109.305123 
L 225.592481 113.913635 
L 237.494737 118.599688 
L 249.396992 123.038818 
L 261.299248 127.244028 
L 273.994987 131.485625 
L 286.690727 135.489233 
L 299.386466 139.268202 
L 312.875689 143.051307 
L 326.364912 146.609283 
L 340.647619 150.146044 
L 354.930326 153.460352 
L 370.006516 156.732901 
L 370.8 156.899003 
L 370.8 156.899003 
" clip-path="url(#p0a06ec6466)" style="fill: none; stroke: #56a3a6; stroke-width: 2.2; stroke-linecap: square"/>
   </g>
   <g id="line2d_24">
    <path d="M 54.2 202.84 
L 55.786967 178.260063 
L 57.373935 157.336567 
L 58.960902 139.572945 
L 60.54787 124.539455 
L 62.134837 111.864196 
L 63.721805 101.225328 
L 65.308772 92.344343 
L 66.895739 84.980241 
L 68.482707 78.924485 
L 70.069674 73.996638 
L 71.656642 70.040581 
L 73.243609 66.92125 
L 74.830576 64.521796 
L 76.417544 62.741142 
L 78.004511 61.491861 
L 79.591479 60.698338 
L 81.178446 60.295182 
L 82.765414 60.225852 
L 84.352381 60.441466 
L 85.939348 60.899771 
L 87.526316 61.564248 
L 89.906767 62.879708 
L 92.287218 64.500094 
L 95.461153 67.013649 
L 99.428571 70.544958 
L 104.189474 75.1185 
L 127.993985 98.488384 
L 134.341855 104.248269 
L 140.689724 109.726717 
L 147.037594 114.921207 
L 153.385464 119.837394 
L 159.733333 124.485122 
L 166.081203 128.876216 
L 172.429073 133.023257 
L 179.570426 137.41273 
L 186.711779 141.526983 
L 193.853133 145.382913 
L 200.994486 148.996551 
L 208.929323 152.745903 
L 216.86416 156.234235 
L 224.798997 159.479687 
L 232.733835 162.499153 
L 241.462155 165.57829 
L 250.190476 168.422406 
L 259.712281 171.278078 
L 269.234085 173.896812 
L 279.549373 176.489156 
L 289.864662 178.849313 
L 300.973434 181.155167 
L 312.082206 183.239394 
L 323.984461 185.250717 
L 336.680201 187.169169 
L 350.169424 188.97879 
L 364.45213 190.66762 
L 370.8 191.350597 
L 370.8 191.350597 
" clip-path="url(#p0a06ec6466)" style="fill: none; stroke: #c06c84; stroke-width: 2.2; stroke-linecap: square"/>
   </g>
   <g id="patch_3">
    <path d="M 54.2 202.84 
L 54.2 26.88 
" style="fill: none; stroke: #000000; stroke-width: 0.8; stroke-linejoin: miter; stroke-linecap: square"/>
   </g>
   <g id="patch_4">
    <path d="M 54.2 202.84 
L 370.8 202.84 
" style="fill: none; stroke: #000000; stroke-width: 0.8; stroke-linejoin: miter; stroke-linecap: square"/>
   </g>
   <g id="text_16">
    <!-- Effect of $CL/V$ on Concentration-Time Profile -->
    <g transform="translate(80.26 20.88) scale(0.12 -0.12)">
     <defs>
      <path id="DejaVuSans-45" d="M 628 4666 
L 3578 4666 
L 3578 4134 
L 1259 4134 
L 1259 2753 
L 3481 2753 
L 3481 2222 
L 1259 2222 
L 1259 531 
L 3634 531 
L 3634 0 
L 628 0 
L 628 4666 
z
" transform="scale(0.015625)"/>
      <path id="DejaVuSans-66" d="M 2375 4863 
L 2375 4384 
L 1825 4384 
Q 1516 4384 1395 4259 
Q 1275 4134 1275 3809 
L 1275 3500 
L 2222 3500 
L 2222 3053 
L 1275 3053 
L 1275 0 
L 697 0 
L 697 3053 
L 147 3053 
L 147 3500 
L 697 3500 
L 697 3744 
Q 697 4328 969 4595 
Q 1241 4863 1831 4863 
L 2375 4863 
z
" transform="scale(0.015625)"/>
      <path id="DejaVuSans-Oblique-43" d="M 4447 4306 
L 4319 3641 
Q 4019 3944 3683 4091 
Q 3347 4238 2956 4238 
Q 2422 4238 2017 3981 
Q 1613 3725 1319 3200 
Q 1131 2863 1032 2486 
Q 934 2109 934 1728 
Q 934 1091 1264 756 
Q 1594 422 2222 422 
Q 2656 422 3056 561 
Q 3456 700 3834 978 
L 3688 231 
Q 3316 72 2936 -9 
Q 2556 -91 2175 -91 
Q 1278 -91 773 396 
Q 269 884 269 1753 
Q 269 2309 461 2846 
Q 653 3384 1013 3828 
Q 1394 4300 1883 4525 
Q 2372 4750 3022 4750 
Q 3422 4750 3780 4639 
Q 4138 4528 4447 4306 
z
" transform="scale(0.015625)"/>
      <path id="DejaVuSans-Oblique-4c" d="M 1075 4666 
L 1709 4666 
L 909 525 
L 3181 525 
L 3078 0 
L 172 0 
L 1075 4666 
z
" transform="scale(0.015625)"/>
      <path id="DejaVuSans-2f" d="M 1625 4666 
L 2156 4666 
L 531 -594 
L 0 -594 
L 1625 4666 
z
" transform="scale(0.015625)"/>
      <path id="DejaVuSans-Oblique-56" d="M 1319 0 
L 500 4666 
L 1119 4666 
L 1797 653 
L 4063 4666 
L 4750 4666 
L 2053 0 
L 1319 0 
z
" transform="scale(0.015625)"/>
      <path id="DejaVuSans-43" d="M 4122 4306 
L 4122 3641 
Q 3803 3938 3442 4084 
Q 3081 4231 2675 4231 
Q 1875 4231 1450 3742 
Q 1025 3253 1025 2328 
Q 1025 1406 1450 917 
Q 1875 428 2675 428 
Q 3081 428 3442 575 
Q 3803 722 4122 1019 
L 4122 359 
Q 3791 134 3420 21 
Q 3050 -91 2638 -91 
Q 1578 -91 968 557 
Q 359 1206 359 2328 
Q 359 3453 968 4101 
Q 1578 4750 2638 4750 
Q 3056 4750 3426 4639 
Q 3797 4528 4122 4306 
z
" transform="scale(0.015625)"/>
      <path id="DejaVuSans-2d" d="M 313 2009 
L 1997 2009 
L 1997 1497 
L 313 1497 
L 313 2009 
z
" transform="scale(0.015625)"/>
     </defs>
     <use xlink:href="#DejaVuSans-45" transform="translate(0 0.015625)"/>
     <use xlink:href="#DejaVuSans-66" transform="translate(63.183594 0.015625)"/>
     <use xlink:href="#DejaVuSans-66" transform="translate(98.388672 0.015625)"/>
     <use xlink:href="#DejaVuSans-65" transform="translate(133.59375 0.015625)"/>
     <use xlink:href="#DejaVuSans-63" transform="translate(195.117188 0.015625)"/>
     <use xlink:href="#DejaVuSans-74" transform="translate(250.097656 0.015625)"/>
     <use xlink:href="#DejaVuSans-20" transform="translate(289.306641 0.015625)"/>
     <use xlink:href="#DejaVuSans-6f" transform="translate(321.09375 0.015625)"/>
     <use xlink:href="#DejaVuSans-66" transform="translate(382.275391 0.015625)"/>
     <use xlink:href="#DejaVuSans-20" transform="translate(417.480469 0.015625)"/>
     <use xlink:href="#DejaVuSans-Oblique-43" transform="translate(449.267578 0.015625)"/>
     <use xlink:href="#DejaVuSans-Oblique-4c" transform="translate(519.091797 0.015625)"/>
     <use xlink:href="#DejaVuSans-2f" transform="translate(574.804688 0.015625)"/>
     <use xlink:href="#DejaVuSans-Oblique-56" transform="translate(608.496094 0.015625)"/>
     <use xlink:href="#DejaVuSans-20" transform="translate(676.904297 0.015625)"/>
     <use xlink:href="#DejaVuSans-6f" transform="translate(708.691406 0.015625)"/>
     <use xlink:href="#DejaVuSans-6e" transform="translate(769.873047 0.015625)"/>
     <use xlink:href="#DejaVuSans-20" transform="translate(833.251953 0.015625)"/>
     <use xlink:href="#DejaVuSans-43" transform="translate(865.039062 0.015625)"/>
     <use xlink:href="#DejaVuSans-6f" transform="translate(934.863281 0.015625)"/>
     <use xlink:href="#DejaVuSans-6e" transform="translate(996.044922 0.015625)"/>
     <use xlink:href="#DejaVuSans-63" transform="translate(1059.423828 0.015625)"/>
     <use xlink:href="#DejaVuSans-65" transform="translate(1114.404297 0.015625)"/>
     <use xlink:href="#DejaVuSans-6e" transform="translate(1175.927734 0.015625)"/>
     <use xlink:href="#DejaVuSans-74" transform="translate(1239.306641 0.015625)"/>
     <use xlink:href="#DejaVuSans-72" transform="translate(1278.515625 0.015625)"/>
     <use xlink:href="#DejaVuSans-61" transform="translate(1319.628906 0.015625)"/>
     <use xlink:href="#DejaVuSans-74" transform="translate(1380.908203 0.015625)"/>
     <use xlink:href="#DejaVuSans-69" transform="translate(1420.117188 0.015625)"/>
     <use xlink:href="#DejaVuSans-6f" transform="translate(1447.900391 0.015625)"/>
     <use xlink:href="#DejaVuSans-6e" transform="translate(1509.082031 0.015625)"/>
     <use xlink:href="#DejaVuSans-2d" transform="translate(1572.460938 0.015625)"/>
     <use xlink:href="#DejaVuSans-54" transform="translate(1608.544922 0.015625)"/>
     <use xlink:href="#DejaVuSans-69" transform="translate(1669.628906 0.015625)"/>
     <use xlink:href="#DejaVuSans-6d" transform="translate(1697.412109 0.015625)"/>
     <use xlink:href="#DejaVuSans-65" transform="translate(1794.824219 0.015625)"/>
     <use xlink:href="#DejaVuSans-20" transform="translate(1856.347656 0.015625)"/>
     <use xlink:href="#DejaVuSans-50" transform="translate(1888.134766 0.015625)"/>
     <use xlink:href="#DejaVuSans-72" transform="translate(1948.4375 0.015625)"/>
     <use xlink:href="#DejaVuSans-6f" transform="translate(1989.550781 0.015625)"/>
     <use xlink:href="#DejaVuSans-66" transform="translate(2050.732422 0.015625)"/>
     <use xlink:href="#DejaVuSans-69" transform="translate(2085.9375 0.015625)"/>
     <use xlink:href="#DejaVuSans-6c" transform="translate(2113.720703 0.015625)"/>
     <use xlink:href="#DejaVuSans-65" transform="translate(2141.503906 0.015625)"/>
    </g>
   </g>
   <g id="legend_1">
    <g id="line2d_25">
     <path d="M 265.4 39.978438 
L 275.4 39.978438 
L 285.4 39.978438 
" style="fill: none; stroke: #4f6d7a; stroke-width: 2.2; stroke-linecap: square"/>
    </g>
    <g id="text_17">
     <!-- Low $CL/V$ -->
     <g transform="translate(293.4 43.478438) scale(0.1 -0.1)">
      <defs>
       <path id="DejaVuSans-4c" d="M 628 4666 
L 1259 4666 
L 1259 531 
L 3531 531 
L 3531 0 
L 628 0 
L 628 4666 
z
" transform="scale(0.015625)"/>
       <path id="DejaVuSans-77" d="M 269 3500 
L 844 3500 
L 1563 769 
L 2278 3500 
L 2956 3500 
L 3675 769 
L 4391 3500 
L 4966 3500 
L 4050 0 
L 3372 0 
L 2619 2869 
L 1863 0 
L 1184 0 
L 269 3500 
z
" transform="scale(0.015625)"/>
      </defs>
      <use xlink:href="#DejaVuSans-4c" transform="translate(0 0.78125)"/>
      <use xlink:href="#DejaVuSans-6f" transform="translate(55.712891 0.78125)"/>
      <use xlink:href="#DejaVuSans-77" transform="translate(116.894531 0.78125)"/>
      <use xlink:href="#DejaVuSans-20" transform="translate(198.681641 0.78125)"/>
      <use xlink:href="#DejaVuSans-Oblique-43" transform="translate(230.46875 0.78125)"/>
      <use xlink:href="#DejaVuSans-Oblique-4c" transform="translate(300.292969 0.78125)"/>
      <use xlink:href="#DejaVuSans-2f" transform="translate(356.005859 0.78125)"/>
      <use xlink:href="#DejaVuSans-Oblique-56" transform="translate(389.697266 0.78125)"/>
     </g>
    </g>
    <g id="line2d_26">
     <path d="M 265.4 54.656563 
L 275.4 54.656563 
L 285.4 54.656563 
" style="fill: none; stroke: #56a3a6; stroke-width: 2.2; stroke-linecap: square"/>
    </g>
    <g id="text_18">
     <!-- Baseline $CL/V$ -->
     <g transform="translate(293.4 58.156563) scale(0.1 -0.1)">
      <defs>
       <path id="DejaVuSans-42" d="M 1259 2228 
L 1259 519 
L 2272 519 
Q 2781 519 3026 730 
Q 3272 941 3272 1375 
Q 3272 1813 3026 2020 
Q 2781 2228 2272 2228 
L 1259 2228 
z
M 1259 4147 
L 1259 2741 
L 2194 2741 
Q 2656 2741 2882 2914 
Q 3109 3088 3109 3444 
Q 3109 3797 2882 3972 
Q 2656 4147 2194 4147 
L 1259 4147 
z
M 628 4666 
L 2241 4666 
Q 2963 4666 3353 4366 
Q 3744 4066 3744 3513 
Q 3744 3084 3544 2831 
Q 3344 2578 2956 2516 
Q 3422 2416 3680 2098 
Q 3938 1781 3938 1306 
Q 3938 681 3513 340 
Q 3088 0 2303 0 
L 628 0 
L 628 4666 
z
" transform="scale(0.015625)"/>
      </defs>
      <use xlink:href="#DejaVuSans-42" transform="translate(0 0.015625)"/>
      <use xlink:href="#DejaVuSans-61" transform="translate(68.603516 0.015625)"/>
      <use xlink:href="#DejaVuSans-73" transform="translate(129.882812 0.015625)"/>
      <use xlink:href="#DejaVuSans-65" transform="translate(181.982422 0.015625)"/>
      <use xlink:href="#DejaVuSans-6c" transform="translate(243.505859 0.015625)"/>
      <use xlink:href="#DejaVuSans-69" transform="translate(271.289062 0.015625)"/>
      <use xlink:href="#DejaVuSans-6e" transform="translate(299.072266 0.015625)"/>
      <use xlink:href="#DejaVuSans-65" transform="translate(362.451172 0.015625)"/>
      <use xlink:href="#DejaVuSans-20" transform="translate(423.974609 0.015625)"/>
      <use xlink:href="#DejaVuSans-Oblique-43" transform="translate(455.761719 0.015625)"/>
      <use xlink:href="#DejaVuSans-Oblique-4c" transform="translate(525.585938 0.015625)"/>
      <use xlink:href="#DejaVuSans-2f" transform="translate(581.298828 0.015625)"/>
      <use xlink:href="#DejaVuSans-Oblique-56" transform="translate(614.990234 0.015625)"/>
     </g>
    </g>
    <g id="line2d_27">
     <path d="M 265.4 69.33625 
L 275.4 69.33625 
L 285.4 69.33625 
" style="fill: none; stroke: #c06c84; stroke-width: 2.2; stroke-linecap: square"/>
    </g>
    <g id="text_19">
     <!-- High $CL/V$ -->
     <g transform="translate(293.4 72.83625) scale(0.1 -0.1)">
      <defs>
       <path id="DejaVuSans-48" d="M 628 4666 
L 1259 4666 
L 1259 2753 
L 3553 2753 
L 3553 4666 
L 4184 4666 
L 4184 0 
L 3553 0 
L 3553 2222 
L 1259 2222 
L 1259 0 
L 628 0 
L 628 4666 
z
" transform="scale(0.015625)"/>
       <path id="DejaVuSans-67" d="M 2906 1791 
Q 2906 2416 2648 2759 
Q 2391 3103 1925 3103 
Q 1463 3103 1205 2759 
Q 947 2416 947 1791 
Q 947 1169 1205 825 
Q 1463 481 1925 481 
Q 2391 481 2648 825 
Q 2906 1169 2906 1791 
z
M 3481 434 
Q 3481 -459 3084 -895 
Q 2688 -1331 1869 -1331 
Q 1566 -1331 1297 -1286 
Q 1028 -1241 775 -1147 
L 775 -588 
Q 1028 -725 1275 -790 
Q 1522 -856 1778 -856 
Q 2344 -856 2625 -561 
Q 2906 -266 2906 331 
L 2906 616 
Q 2728 306 2450 153 
Q 2172 0 1784 0 
Q 1141 0 747 490 
Q 353 981 353 1791 
Q 353 2603 747 3093 
Q 1141 3584 1784 3584 
Q 2172 3584 2450 3431 
Q 2728 3278 2906 2969 
L 2906 3500 
L 3481 3500 
L 3481 434 
z
" transform="scale(0.015625)"/>
      </defs>
      <use xlink:href="#DejaVuSans-48" transform="translate(0 0.015625)"/>
      <use xlink:href="#DejaVuSans-69" transform="translate(75.195312 0.015625)"/>
      <use xlink:href="#DejaVuSans-67" transform="translate(102.978516 0.015625)"/>
      <use xlink:href="#DejaVuSans-68" transform="translate(166.455078 0.015625)"/>
      <use xlink:href="#DejaVuSans-20" transform="translate(229.833984 0.015625)"/>
      <use xlink:href="#DejaVuSans-Oblique-43" transform="translate(261.621094 0.015625)"/>
      <use xlink:href="#DejaVuSans-Oblique-4c" transform="translate(331.445312 0.015625)"/>
      <use xlink:href="#DejaVuSans-2f" transform="translate(387.158203 0.015625)"/>
      <use xlink:href="#DejaVuSans-Oblique-56" transform="translate(420.849609 0.015625)"/>
     </g>
    </g>
   </g>
  </g>
 </g>
 <defs>
  <clipPath id="p0a06ec6466">
   <rect x="54.2" y="26.88" width="316.6" height="175.96"/>
  </clipPath>
 </defs>
</svg>
