<?xml version="1.0" encoding="utf-8" standalone="no"?>
<!DOCTYPE svg PUBLIC "-//W3C//DTD SVG 1.1//EN"
  "http://www.w3.org/Graphics/SVG/1.1/DTD/svg11.dtd">
<svg xmlns:xlink="http://www.w3.org/1999/xlink" width="540pt" height="288pt" viewBox="0 0 540 288" xmlns="http://www.w3.org/2000/svg" version="1.1">
 <metadata>
  <rdf:RDF xmlns:dc="http://purl.org/dc/elements/1.1/" xmlns:cc="http://creativecommons.org/ns#" xmlns:rdf="http://www.w3.org/1999/02/22-rdf-syntax-ns#">
   <cc:Work>
    <dc:type rdf:resource="http://purl.org/dc/dcmitype/StillImage"/>
    <dc:date>2025-11-01T14:14:09.849608</dc:date>
    <dc:format>image/svg+xml</dc:format>
    <dc:creator>
     <cc:Agent>
      <dc:title>Matplotlib v3.6.3, https://matplotlib.org/</dc:title>
     </cc:Agent>
    </dc:creator>
   </cc:Work>
  </rdf:RDF>
 </metadata>
 <defs>
  <style type="text/css">*{stroke-linejoin: round; stroke-linecap: butt}</style>
 </defs>
 <g id="figure_1">
  <g id="patch_1">
   <path d="M 0 288 
L 540 288 
L 540 0 
L 0 0 
z
" style="fill: #ffffff"/>
  </g>
  <g id="axes_1">
   <g id="patch_2">
    <path d="M 46.7 248.2 
L 522.825 248.2 
L 522.825 25.8 
L 46.7 25.8 
z
" style="fill: #f8f9fb"/>
   </g>
   <g id="patch_3">
    <path d="M 205.408333 248.2 
L 205.408333 25.8 
L 245.085417 25.8 
L 245.085417 248.2 
z
" clip-path="url(#p7ed3aa85fb)" style="fill: #3ba272; opacity: 0.12; stroke: #3ba272; stroke-linejoin: miter"/>
   </g>
   <g id="matplotlib.axis_1">
    <g id="xtick_1">
     <g id="line2d_1">
      <defs>
       <path id="m272b999a81" d="M 0 0 
L 0 3.5 
" style="stroke: #000000; stroke-width: 0.8"/>
      </defs>
      <g>
       <use xlink:href="#m272b999a81" x="46.7" y="248.2" style="stroke: #000000; stroke-width: 0.8"/>
      </g>
     </g>
     <g id="text_1">
      <!-- 0 -->
      <g transform="translate(43.51875 262.798438) scale(0.1 -0.1)">
       <defs>
        <path id="DejaVuSans-30" d="M 2034 4250 
Q 1547 4250 1301 3770 
Q 1056 3291 1056 2328 
Q 1056 1369 1301 889 
Q 1547 409 2034 409 
Q 2525 409 2770 889 
Q 3016 1369 3016 2328 
Q 3016 3291 2770 3770 
Q 2525 4250 2034 4250 
z
M 2034 4750 
Q 2819 4750 3233 4129 
Q 3647 3509 3647 2328 
Q 3647 1150 3233 529 
Q 2819 -91 2034 -91 
Q 1250 -91 836 529 
Q 422 1150 422 2328 
Q 422 3509 836 4129 
Q 1250 4750 2034 4750 
z
" transform="scale(0.015625)"/>
       </defs>
       <use xlink:href="#DejaVuSans-30"/>
      </g>
     </g>
    </g>
    <g id="xtick_2">
     <g id="line2d_2">
      <g>
       <use xlink:href="#m272b999a81" x="106.215625" y="248.2" style="stroke: #000000; stroke-width: 0.8"/>
      </g>
     </g>
     <g id="text_2">
      <!-- 12 -->
      <g transform="translate(99.853125 262.798438) scale(0.1 -0.1)">
       <defs>
        <path id="DejaVuSans-31" d="M 794 531 
L 1825 531 
L 1825 4091 
L 703 3866 
L 703 4441 
L 1819 4666 
L 2450 4666 
L 2450 531 
L 3481 531 
L 3481 0 
L 794 0 
L 794 531 
z
" transform="scale(0.015625)"/>
        <path id="DejaVuSans-32" d="M 1228 531 
L 3431 531 
L 3431 0 
L 469 0 
L 469 531 
Q 828 903 1448 1529 
Q 2069 2156 2228 2338 
Q 2531 2678 2651 2914 
Q 2772 3150 2772 3378 
Q 2772 3750 2511 3984 
Q 2250 4219 1831 4219 
Q 1534 4219 1204 4116 
Q 875 4013 500 3803 
L 500 4441 
Q 881 4594 1212 4672 
Q 1544 4750 1819 4750 
Q 2544 4750 2975 4387 
Q 3406 4025 3406 3419 
Q 3406 3131 3298 2873 
Q 3191 2616 2906 2266 
Q 2828 2175 2409 1742 
Q 1991 1309 1228 531 
z
" transform="scale(0.015625)"/>
       </defs>
       <use xlink:href="#DejaVuSans-31"/>
       <use xlink:href="#DejaVuSans-32" x="63.623047"/>
      </g>
     </g>
    </g>
    <g id="xtick_3">
     <g id="line2d_3">
      <g>
       <use xlink:href="#m272b999a81" x="165.73125" y="248.2" style="stroke: #000000; stroke-width: 0.8"/>
      </g>
     </g>
     <g id="text_3">
      <!-- 24 -->
      <g transform="translate(159.36875 262.798438) scale(0.1 -0.1)">
       <defs>
        <path id="DejaVuSans-34" d="M 2419 4116 
L 825 1625 
L 2419 1625 
L 2419 4116 
z
M 2253 4666 
L 3047 4666 
L 3047 1625 
L 3713 1625 
L 3713 1100 
L 3047 1100 
L 3047 0 
L 2419 0 
L 2419 1100 
L 313 1100 
L 313 1709 
L 2253 4666 
z
" transform="scale(0.015625)"/>
       </defs>
       <use xlink:href="#DejaVuSans-32"/>
       <use xlink:href="#DejaVuSans-34" x="63.623047"/>
      </g>
     </g>
    </g>
    <g id="xtick_4">
     <g id="line2d_4">
      <g>
       <use xlink:href="#m272b999a81" x="225.246875" y="248.2" style="stroke: #000000; stroke-width: 0.8"/>
      </g>
     </g>
     <g id="text_4">
      <!-- 36 -->
      <g transform="translate(218.884375 262.798438) scale(0.1 -0.1)">
       <defs>
        <path id="DejaVuSans-33" d="M 2597 2516 
Q 3050 2419 3304 2112 
Q 3559 1806 3559 1356 
Q 3559 666 3084 287 
Q 2609 -91 1734 -91 
Q 1441 -91 1130 -33 
Q 819 25 488 141 
L 488 750 
Q 750 597 1062 519 
Q 1375 441 1716 441 
Q 2309 441 2620 675 
Q 2931 909 2931 1356 
Q 2931 1769 2642 2001 
Q 2353 2234 1838 2234 
L 1294 2234 
L 1294 2753 
L 1863 2753 
Q 2328 2753 2575 2939 
Q 2822 3125 2822 3475 
Q 2822 3834 2567 4026 
Q 2313 4219 1838 4219 
Q 1578 4219 1281 4162 
Q 984 4106 628 3988 
L 628 4550 
Q 988 4650 1302 4700 
Q 1616 4750 1894 4750 
Q 2613 4750 3031 4423 
Q 3450 4097 3450 3541 
Q 3450 3153 3228 2886 
Q 3006 2619 2597 2516 
z
" transform="scale(0.015625)"/>
        <path id="DejaVuSans-36" d="M 2113 2584 
Q 1688 2584 1439 2293 
Q 1191 2003 1191 1497 
Q 1191 994 1439 701 
Q 1688 409 2113 409 
Q 2538 409 2786 701 
Q 3034 994 3034 1497 
Q 3034 2003 2786 2293 
Q 2538 2584 2113 2584 
z
M 3366 4563 
L 3366 3988 
Q 3128 4100 2886 4159 
Q 2644 4219 2406 4219 
Q 1781 4219 1451 3797 
Q 1122 3375 1075 2522 
Q 1259 2794 1537 2939 
Q 1816 3084 2150 3084 
Q 2853 3084 3261 2657 
Q 3669 2231 3669 1497 
Q 3669 778 3244 343 
Q 2819 -91 2113 -91 
Q 1303 -91 875 529 
Q 447 1150 447 2328 
Q 447 3434 972 4092 
Q 1497 4750 2381 4750 
Q 2619 4750 2861 4703 
Q 3103 4656 3366 4563 
z
" transform="scale(0.015625)"/>
       </defs>
       <use xlink:href="#DejaVuSans-33"/>
       <use xlink:href="#DejaVuSans-36" x="63.623047"/>
      </g>
     </g>
    </g>
    <g id="xtick_5">
     <g id="line2d_5">
      <g>
       <use xlink:href="#m272b999a81" x="284.7625" y="248.2" style="stroke: #000000; stroke-width: 0.8"/>
      </g>
     </g>
     <g id="text_5">
      <!-- 48 -->
      <g transform="translate(278.4 262.798438) scale(0.1 -0.1)">
       <defs>
        <path id="DejaVuSans-38" d="M 2034 2216 
Q 1584 2216 1326 1975 
Q 1069 1734 1069 1313 
Q 1069 891 1326 650 
Q 1584 409 2034 409 
Q 2484 409 2743 651 
Q 3003 894 3003 1313 
Q 3003 1734 2745 1975 
Q 2488 2216 2034 2216 
z
M 1403 2484 
Q 997 2584 770 2862 
Q 544 3141 544 3541 
Q 544 4100 942 4425 
Q 1341 4750 2034 4750 
Q 2731 4750 3128 4425 
Q 3525 4100 3525 3541 
Q 3525 3141 3298 2862 
Q 3072 2584 2669 2484 
Q 3125 2378 3379 2068 
Q 3634 1759 3634 1313 
Q 3634 634 3220 271 
Q 2806 -91 2034 -91 
Q 1263 -91 848 271 
Q 434 634 434 1313 
Q 434 1759 690 2068 
Q 947 2378 1403 2484 
z
M 1172 3481 
Q 1172 3119 1398 2916 
Q 1625 2713 2034 2713 
Q 2441 2713 2670 2916 
Q 2900 3119 2900 3481 
Q 2900 3844 2670 4047 
Q 2441 4250 2034 4250 
Q 1625 4250 1398 4047 
Q 1172 3844 1172 3481 
z
" transform="scale(0.015625)"/>
       </defs>
       <use xlink:href="#DejaVuSans-34"/>
       <use xlink:href="#DejaVuSans-38" x="63.623047"/>
      </g>
     </g>
    </g>
    <g id="xtick_6">
     <g id="line2d_6">
      <g>
       <use xlink:href="#m272b999a81" x="344.278125" y="248.2" style="stroke: #000000; stroke-width: 0.8"/>
      </g>
     </g>
     <g id="text_6">
      <!-- 60 -->
      <g transform="translate(337.915625 262.798438) scale(0.1 -0.1)">
       <use xlink:href="#DejaVuSans-36"/>
       <use xlink:href="#DejaVuSans-30" x="63.623047"/>
      </g>
     </g>
    </g>
    <g id="xtick_7">
     <g id="line2d_7">
      <g>
       <use xlink:href="#m272b999a81" x="403.79375" y="248.2" style="stroke: #000000; stroke-width: 0.8"/>
      </g>
     </g>
     <g id="text_7">
      <!-- 72 -->
      <g transform="translate(397.43125 262.798438) scale(0.1 -0.1)">
       <defs>
        <path id="DejaVuSans-37" d="M 525 4666 
L 3525 4666 
L 3525 4397 
L 1831 0 
L 1172 0 
L 2766 4134 
L 525 4134 
L 525 4666 
z
" transform="scale(0.015625)"/>
       </defs>
       <use xlink:href="#DejaVuSans-37"/>
       <use xlink:href="#DejaVuSans-32" x="63.623047"/>
      </g>
     </g>
    </g>
    <g id="xtick_8">
     <g id="line2d_8">
      <g>
       <use xlink:href="#m272b999a81" x="463.309375" y="248.2" style="stroke: #000000; stroke-width: 0.8"/>
      </g>
     </g>
     <g id="text_8">
      <!-- 84 -->
      <g transform="translate(456.946875 262.798438) scale(0.1 -0.1)">
       <use xlink:href="#DejaVuSans-38"/>
       <use xlink:href="#DejaVuSans-34" x="63.623047"/>
      </g>
     </g>
    </g>
    <g id="xtick_9">
     <g id="line2d_9">
      <g>
       <use xlink:href="#m272b999a81" x="522.825" y="248.2" style="stroke: #000000; stroke-width: 0.8"/>
      </g>
     </g>
     <g id="text_9">
      <!-- 96 -->
      <g transform="translate(516.4625 262.798438) scale(0.1 -0.1)">
       <defs>
        <path id="DejaVuSans-39" d="M 703 97 
L 703 672 
Q 941 559 1184 500 
Q 1428 441 1663 441 
Q 2288 441 2617 861 
Q 2947 1281 2994 2138 
Q 2813 1869 2534 1725 
Q 2256 1581 1919 1581 
Q 1219 1581 811 2004 
Q 403 2428 403 3163 
Q 403 3881 828 4315 
Q 1253 4750 1959 4750 
Q 2769 4750 3195 4129 
Q 3622 3509 3622 2328 
Q 3622 1225 3098 567 
Q 2575 -91 1691 -91 
Q 1453 -91 1209 -44 
Q 966 3 703 97 
z
M 1959 2075 
Q 2384 2075 2632 2365 
Q 2881 2656 2881 3163 
Q 2881 3666 2632 3958 
Q 2384 4250 1959 4250 
Q 1534 4250 1286 3958 
Q 1038 3666 1038 3163 
Q 1038 2656 1286 2365 
Q 1534 2075 1959 2075 
z
" transform="scale(0.015625)"/>
       </defs>
       <use xlink:href="#DejaVuSans-39"/>
       <use xlink:href="#DejaVuSans-36" x="63.623047"/>
      </g>
     </g>
    </g>
    <g id="text_10">
     <!-- Time (hours) -->
     <g transform="translate(252.98125 276.476562) scale(0.1 -0.1)">
      <defs>
       <path id="DejaVuSans-54" d="M -19 4666 
L 3928 4666 
L 3928 4134 
L 2272 4134 
L 2272 0 
L 1638 0 
L 1638 4134 
L -19 4134 
L -19 4666 
z
" transform="scale(0.015625)"/>
       <path id="DejaVuSans-69" d="M 603 3500 
L 1178 3500 
L 1178 0 
L 603 0 
L 603 3500 
z
M 603 4863 
L 1178 4863 
L 1178 4134 
L 603 4134 
L 603 4863 
z
" transform="scale(0.015625)"/>
       <path id="DejaVuSans-6d" d="M 3328 2828 
Q 3544 3216 3844 3400 
Q 4144 3584 4550 3584 
Q 5097 3584 5394 3201 
Q 5691 2819 5691 2113 
L 5691 0 
L 5113 0 
L 5113 2094 
Q 5113 2597 4934 2840 
Q 4756 3084 4391 3084 
Q 3944 3084 3684 2787 
Q 3425 2491 3425 1978 
L 3425 0 
L 2847 0 
L 2847 2094 
Q 2847 2600 2669 2842 
Q 2491 3084 2119 3084 
Q 1678 3084 1418 2786 
Q 1159 2488 1159 1978 
L 1159 0 
L 581 0 
L 581 3500 
L 1159 3500 
L 1159 2956 
Q 1356 3278 1631 3431 
Q 1906 3584 2284 3584 
Q 2666 3584 2933 3390 
Q 3200 3197 3328 2828 
z
" transform="scale(0.015625)"/>
       <path id="DejaVuSans-65" d="M 3597 1894 
L 3597 1613 
L 953 1613 
Q 991 1019 1311 708 
Q 1631 397 2203 397 
Q 2534 397 2845 478 
Q 3156 559 3463 722 
L 3463 178 
Q 3153 47 2828 -22 
Q 2503 -91 2169 -91 
Q 1331 -91 842 396 
Q 353 884 353 1716 
Q 353 2575 817 3079 
Q 1281 3584 2069 3584 
Q 2775 3584 3186 3129 
Q 3597 2675 3597 1894 
z
M 3022 2063 
Q 3016 2534 2758 2815 
Q 2500 3097 2075 3097 
Q 1594 3097 1305 2825 
Q 1016 2553 972 2059 
L 3022 2063 
z
" transform="scale(0.015625)"/>
       <path id="DejaVuSans-20" transform="scale(0.015625)"/>
       <path id="DejaVuSans-28" d="M 1984 4856 
Q 1566 4138 1362 3434 
Q 1159 2731 1159 2009 
Q 1159 1288 1364 580 
Q 1569 -128 1984 -844 
L 1484 -844 
Q 1016 -109 783 600 
Q 550 1309 550 2009 
Q 550 2706 781 3412 
Q 1013 4119 1484 4856 
L 1984 4856 
z
" transform="scale(0.015625)"/>
       <path id="DejaVuSans-68" d="M 3513 2113 
L 3513 0 
L 2938 0 
L 2938 2094 
Q 2938 2591 2744 2837 
Q 2550 3084 2163 3084 
Q 1697 3084 1428 2787 
Q 1159 2491 1159 1978 
L 1159 0 
L 581 0 
L 581 4863 
L 1159 4863 
L 1159 2956 
Q 1366 3272 1645 3428 
Q 1925 3584 2291 3584 
Q 2894 3584 3203 3211 
Q 3513 2838 3513 2113 
z
" transform="scale(0.015625)"/>
       <path id="DejaVuSans-6f" d="M 1959 3097 
Q 1497 3097 1228 2736 
Q 959 2375 959 1747 
Q 959 1119 1226 758 
Q 1494 397 1959 397 
Q 2419 397 2687 759 
Q 2956 1122 2956 1747 
Q 2956 2369 2687 2733 
Q 2419 3097 1959 3097 
z
M 1959 3584 
Q 2709 3584 3137 3096 
Q 3566 2609 3566 1747 
Q 3566 888 3137 398 
Q 2709 -91 1959 -91 
Q 1206 -91 779 398 
Q 353 888 353 1747 
Q 353 2609 779 3096 
Q 1206 3584 1959 3584 
z
" transform="scale(0.015625)"/>
       <path id="DejaVuSans-75" d="M 544 1381 
L 544 3500 
L 1119 3500 
L 1119 1403 
Q 1119 906 1312 657 
Q 1506 409 1894 409 
Q 2359 409 2629 706 
Q 2900 1003 2900 1516 
L 2900 3500 
L 3475 3500 
L 3475 0 
L 2900 0 
L 2900 538 
Q 2691 219 2414 64 
Q 2138 -91 1772 -91 
Q 1169 -91 856 284 
Q 544 659 544 1381 
z
M 1991 3584 
L 1991 3584 
z
" transform="scale(0.015625)"/>
       <path id="DejaVuSans-72" d="M 2631 2963 
Q 2534 3019 2420 3045 
Q 2306 3072 2169 3072 
Q 1681 3072 1420 2755 
Q 1159 2438 1159 1844 
L 1159 0 
L 581 0 
L 581 3500 
L 1159 3500 
L 1159 2956 
Q 1341 3275 1631 3429 
Q 1922 3584 2338 3584 
Q 2397 3584 2469 3576 
Q 2541 3569 2628 3553 
L 2631 2963 
z
" transform="scale(0.015625)"/>
       <path id="DejaVuSans-73" d="M 2834 3397 
L 2834 2853 
Q 2591 2978 2328 3040 
Q 2066 3103 1784 3103 
Q 1356 3103 1142 2972 
Q 928 2841 928 2578 
Q 928 2378 1081 2264 
Q 1234 2150 1697 2047 
L 1894 2003 
Q 2506 1872 2764 1633 
Q 3022 1394 3022 966 
Q 3022 478 2636 193 
Q 2250 -91 1575 -91 
Q 1294 -91 989 -36 
Q 684 19 347 128 
L 347 722 
Q 666 556 975 473 
Q 1284 391 1588 391 
Q 1994 391 2212 530 
Q 2431 669 2431 922 
Q 2431 1156 2273 1281 
Q 2116 1406 1581 1522 
L 1381 1569 
Q 847 1681 609 1914 
Q 372 2147 372 2553 
Q 372 3047 722 3315 
Q 1072 3584 1716 3584 
Q 2034 3584 2315 3537 
Q 2597 3491 2834 3397 
z
" transform="scale(0.015625)"/>
       <path id="DejaVuSans-29" d="M 513 4856 
L 1013 4856 
Q 1481 4119 1714 3412 
Q 1947 2706 1947 2009 
Q 1947 1309 1714 600 
Q 1481 -109 1013 -844 
L 513 -844 
Q 928 -128 1133 580 
Q 1338 1288 1338 2009 
Q 1338 2731 1133 3434 
Q 928 4138 513 4856 
z
" transform="scale(0.015625)"/>
      </defs>
      <use xlink:href="#DejaVuSans-54"/>
      <use xlink:href="#DejaVuSans-69" x="57.958984"/>
      <use xlink:href="#DejaVuSans-6d" x="85.742188"/>
      <use xlink:href="#DejaVuSans-65" x="183.154297"/>
      <use xlink:href="#DejaVuSans-20" x="244.677734"/>
      <use xlink:href="#DejaVuSans-28" x="276.464844"/>
      <use xlink:href="#DejaVuSans-68" x="315.478516"/>
      <use xlink:href="#DejaVuSans-6f" x="378.857422"/>
      <use xlink:href="#DejaVuSans-75" x="440.039062"/>
      <use xlink:href="#DejaVuSans-72" x="503.417969"/>
      <use xlink:href="#DejaVuSans-73" x="544.53125"/>
      <use xlink:href="#DejaVuSans-29" x="596.630859"/>
     </g>
    </g>
   </g>
   <g id="matplotlib.axis_2">
    <g id="ytick_1">
     <g id="line2d_10">
      <defs>
       <path id="me614d76bc2" d="M 0 0 
L -3.5 0 
" style="stroke: #000000; stroke-width: 0.8"/>
      </defs>
      <g>
       <use xlink:href="#me614d76bc2" x="46.7" y="248.2" style="stroke: #000000; stroke-width: 0.8"/>
      </g>
     </g>
     <g id="text_11">
      <!-- 0.0 -->
      <g transform="translate(23.796875 251.999219) scale(0.1 -0.1)">
       <defs>
        <path id="DejaVuSans-2e" d="M 684 794 
L 1344 794 
L 1344 0 
L 684 0 
L 684 794 
z
" transform="scale(0.015625)"/>
       </defs>
       <use xlink:href="#DejaVuSans-30"/>
       <use xlink:href="#DejaVuSans-2e" x="63.623047"/>
       <use xlink:href="#DejaVuSans-30" x="95.410156"/>
      </g>
     </g>
    </g>
    <g id="ytick_2">
     <g id="line2d_11">
      <g>
       <use xlink:href="#me614d76bc2" x="46.7" y="216.88687" style="stroke: #000000; stroke-width: 0.8"/>
      </g>
     </g>
     <g id="text_12">
      <!-- 0.2 -->
      <g transform="translate(23.796875 220.686089) scale(0.1 -0.1)">
       <use xlink:href="#DejaVuSans-30"/>
       <use xlink:href="#DejaVuSans-2e" x="63.623047"/>
       <use xlink:href="#DejaVuSans-32" x="95.410156"/>
      </g>
     </g>
    </g>
    <g id="ytick_3">
     <g id="line2d_12">
      <g>
       <use xlink:href="#me614d76bc2" x="46.7" y="185.57374" style="stroke: #000000; stroke-width: 0.8"/>
      </g>
     </g>
     <g id="text_13">
      <!-- 0.4 -->
      <g transform="translate(23.796875 189.372959) scale(0.1 -0.1)">
       <use xlink:href="#DejaVuSans-30"/>
       <use xlink:href="#DejaVuSans-2e" x="63.623047"/>
       <use xlink:href="#DejaVuSans-34" x="95.410156"/>
      </g>
     </g>
    </g>
    <g id="ytick_4">
     <g id="line2d_13">
      <g>
       <use xlink:href="#me614d76bc2" x="46.7" y="154.26061" style="stroke: #000000; stroke-width: 0.8"/>
      </g>
     </g>
     <g id="text_14">
      <!-- 0.6 -->
      <g transform="translate(23.796875 158.059829) scale(0.1 -0.1)">
       <use xlink:href="#DejaVuSans-30"/>
       <use xlink:href="#DejaVuSans-2e" x="63.623047"/>
       <use xlink:href="#DejaVuSans-36" x="95.410156"/>
      </g>
     </g>
    </g>
    <g id="ytick_5">
     <g id="line2d_14">
      <g>
       <use xlink:href="#me614d76bc2" x="46.7" y="122.94748" style="stroke: #000000; stroke-width: 0.8"/>
      </g>
     </g>
     <g id="text_15">
      <!-- 0.8 -->
      <g transform="translate(23.796875 126.746699) scale(0.1 -0.1)">
       <use xlink:href="#DejaVuSans-30"/>
       <use xlink:href="#DejaVuSans-2e" x="63.623047"/>
       <use xlink:href="#DejaVuSans-38" x="95.410156"/>
      </g>
     </g>
    </g>
    <g id="ytick_6">
     <g id="line2d_15">
      <g>
       <use xlink:href="#me614d76bc2" x="46.7" y="91.63435" style="stroke: #000000; stroke-width: 0.8"/>
      </g>
     </g>
     <g id="text_16">
      <!-- 1.0 -->
      <g transform="translate(23.796875 95.433569) scale(0.1 -0.1)">
       <use xlink:href="#DejaVuSans-31"/>
       <use xlink:href="#DejaVuSans-2e" x="63.623047"/>
       <use xlink:href="#DejaVuSans-30" x="95.410156"/>
      </g>
     </g>
    </g>
    <g id="ytick_7">
     <g id="line2d_16">
      <g>
       <use xlink:href="#me614d76bc2" x="46.7" y="60.32122" style="stroke: #000000; stroke-width: 0.8"/>
      </g>
     </g>
     <g id="text_17">
      <!-- 1.2 -->
      <g transform="translate(23.796875 64.120439) scale(0.1 -0.1)">
       <use xlink:href="#DejaVuSans-31"/>
       <use xlink:href="#DejaVuSans-2e" x="63.623047"/>
       <use xlink:href="#DejaVuSans-32" x="95.410156"/>
      </g>
     </g>
    </g>
    <g id="ytick_8">
     <g id="line2d_17">
      <g>
       <use xlink:href="#me614d76bc2" x="46.7" y="29.00809" style="stroke: #000000; stroke-width: 0.8"/>
      </g>
     </g>
     <g id="text_18">
      <!-- 1.4 -->
      <g transform="translate(23.796875 32.807309) scale(0.1 -0.1)">
       <use xlink:href="#DejaVuSans-31"/>
       <use xlink:href="#DejaVuSans-2e" x="63.623047"/>
       <use xlink:href="#DejaVuSans-34" x="95.410156"/>
      </g>
     </g>
    </g>
    <g id="text_19">
     <!-- Relative plasma concentration -->
     <g transform="translate(17.717188 213.1375) rotate(-90) scale(0.1 -0.1)">
      <defs>
       <path id="DejaVuSans-52" d="M 2841 2188 
Q 3044 2119 3236 1894 
Q 3428 1669 3622 1275 
L 4263 0 
L 3584 0 
L 2988 1197 
Q 2756 1666 2539 1819 
Q 2322 1972 1947 1972 
L 1259 1972 
L 1259 0 
L 628 0 
L 628 4666 
L 2053 4666 
Q 2853 4666 3247 4331 
Q 3641 3997 3641 3322 
Q 3641 2881 3436 2590 
Q 3231 2300 2841 2188 
z
M 1259 4147 
L 1259 2491 
L 2053 2491 
Q 2509 2491 2742 2702 
Q 2975 2913 2975 3322 
Q 2975 3731 2742 3939 
Q 2509 4147 2053 4147 
L 1259 4147 
z
" transform="scale(0.015625)"/>
       <path id="DejaVuSans-6c" d="M 603 4863 
L 1178 4863 
L 1178 0 
L 603 0 
L 603 4863 
z
" transform="scale(0.015625)"/>
       <path id="DejaVuSans-61" d="M 2194 1759 
Q 1497 1759 1228 1600 
Q 959 1441 959 1056 
Q 959 750 1161 570 
Q 1363 391 1709 391 
Q 2188 391 2477 730 
Q 2766 1069 2766 1631 
L 2766 1759 
L 2194 1759 
z
M 3341 1997 
L 3341 0 
L 2766 0 
L 2766 531 
Q 2569 213 2275 61 
Q 1981 -91 1556 -91 
Q 1019 -91 701 211 
Q 384 513 384 1019 
Q 384 1609 779 1909 
Q 1175 2209 1959 2209 
L 2766 2209 
L 2766 2266 
Q 2766 2663 2505 2880 
Q 2244 3097 1772 3097 
Q 1472 3097 1187 3025 
Q 903 2953 641 2809 
L 641 3341 
Q 956 3463 1253 3523 
Q 1550 3584 1831 3584 
Q 2591 3584 2966 3190 
Q 3341 2797 3341 1997 
z
" transform="scale(0.015625)"/>
       <path id="DejaVuSans-74" d="M 1172 4494 
L 1172 3500 
L 2356 3500 
L 2356 3053 
L 1172 3053 
L 1172 1153 
Q 1172 725 1289 603 
Q 1406 481 1766 481 
L 2356 481 
L 2356 0 
L 1766 0 
Q 1100 0 847 248 
Q 594 497 594 1153 
L 594 3053 
L 172 3053 
L 172 3500 
L 594 3500 
L 594 4494 
L 1172 4494 
z
" transform="scale(0.015625)"/>
       <path id="DejaVuSans-76" d="M 191 3500 
L 800 3500 
L 1894 563 
L 2988 3500 
L 3597 3500 
L 2284 0 
L 1503 0 
L 191 3500 
z
" transform="scale(0.015625)"/>
       <path id="DejaVuSans-70" d="M 1159 525 
L 1159 -1331 
L 581 -1331 
L 581 3500 
L 1159 3500 
L 1159 2969 
Q 1341 3281 1617 3432 
Q 1894 3584 2278 3584 
Q 2916 3584 3314 3078 
Q 3713 2572 3713 1747 
Q 3713 922 3314 415 
Q 2916 -91 2278 -91 
Q 1894 -91 1617 61 
Q 1341 213 1159 525 
z
M 3116 1747 
Q 3116 2381 2855 2742 
Q 2594 3103 2138 3103 
Q 1681 3103 1420 2742 
Q 1159 2381 1159 1747 
Q 1159 1113 1420 752 
Q 1681 391 2138 391 
Q 2594 391 2855 752 
Q 3116 1113 3116 1747 
z
" transform="scale(0.015625)"/>
       <path id="DejaVuSans-63" d="M 3122 3366 
L 3122 2828 
Q 2878 2963 2633 3030 
Q 2388 3097 2138 3097 
Q 1578 3097 1268 2742 
Q 959 2388 959 1747 
Q 959 1106 1268 751 
Q 1578 397 2138 397 
Q 2388 397 2633 464 
Q 2878 531 3122 666 
L 3122 134 
Q 2881 22 2623 -34 
Q 2366 -91 2075 -91 
Q 1284 -91 818 406 
Q 353 903 353 1747 
Q 353 2603 823 3093 
Q 1294 3584 2113 3584 
Q 2378 3584 2631 3529 
Q 2884 3475 3122 3366 
z
" transform="scale(0.015625)"/>
       <path id="DejaVuSans-6e" d="M 3513 2113 
L 3513 0 
L 2938 0 
L 2938 2094 
Q 2938 2591 2744 2837 
Q 2550 3084 2163 3084 
Q 1697 3084 1428 2787 
Q 1159 2491 1159 1978 
L 1159 0 
L 581 0 
L 581 3500 
L 1159 3500 
L 1159 2956 
Q 1366 3272 1645 3428 
Q 1925 3584 2291 3584 
Q 2894 3584 3203 3211 
Q 3513 2838 3513 2113 
z
" transform="scale(0.015625)"/>
      </defs>
      <use xlink:href="#DejaVuSans-52"/>
      <use xlink:href="#DejaVuSans-65" x="64.982422"/>
      <use xlink:href="#DejaVuSans-6c" x="126.505859"/>
      <use xlink:href="#DejaVuSans-61" x="154.289062"/>
      <use xlink:href="#DejaVuSans-74" x="215.568359"/>
      <use xlink:href="#DejaVuSans-69" x="254.777344"/>
      <use xlink:href="#DejaVuSans-76" x="282.560547"/>
      <use xlink:href="#DejaVuSans-65" x="341.740234"/>
      <use xlink:href="#DejaVuSans-20" x="403.263672"/>
      <use xlink:href="#DejaVuSans-70" x="435.050781"/>
      <use xlink:href="#DejaVuSans-6c" x="498.527344"/>
      <use xlink:href="#DejaVuSans-61" x="526.310547"/>
      <use xlink:href="#DejaVuSans-73" x="587.589844"/>
      <use xlink:href="#DejaVuSans-6d" x="639.689453"/>
      <use xlink:href="#DejaVuSans-61" x="737.101562"/>
      <use xlink:href="#DejaVuSans-20" x="798.380859"/>
      <use xlink:href="#DejaVuSans-63" x="830.167969"/>
      <use xlink:href="#DejaVuSans-6f" x="885.148438"/>
      <use xlink:href="#DejaVuSans-6e" x="946.330078"/>
      <use xlink:href="#DejaVuSans-63" x="1009.708984"/>
      <use xlink:href="#DejaVuSans-65" x="1064.689453"/>
      <use xlink:href="#DejaVuSans-6e" x="1126.212891"/>
      <use xlink:href="#DejaVuSans-74" x="1189.591797"/>
      <use xlink:href="#DejaVuSans-72" x="1228.800781"/>
      <use xlink:href="#DejaVuSans-61" x="1269.914062"/>
      <use xlink:href="#DejaVuSans-74" x="1331.193359"/>
      <use xlink:href="#DejaVuSans-69" x="1370.402344"/>
      <use xlink:href="#DejaVuSans-6f" x="1398.185547"/>
      <use xlink:href="#DejaVuSans-6e" x="1459.367188"/>
     </g>
    </g>
   </g>
   <g id="line2d_18">
    <path d="M 46.7 248.2 
L 47.654158 218.594364 
L 48.608317 195.124826 
L 49.562475 176.612957 
L 50.516633 162.105221 
L 51.470792 150.830083 
L 52.42495 142.163292 
L 53.379108 135.599789 
L 54.333267 130.73097 
L 55.287425 127.226286 
L 56.241583 124.818357 
L 57.195741 123.290917 
L 58.1499 122.469068 
L 59.104058 122.211383 
L 60.058216 122.403524 
L 61.012375 122.953073 
L 61.966533 123.785347 
L 62.920691 124.840015 
L 64.829008 127.431059 
L 66.737325 130.438796 
L 70.553958 137.023117 
L 78.187224 150.310766 
L 82.003858 156.544936 
L 85.820491 162.422572 
L 89.637124 167.940642 
L 93.453758 173.111174 
L 97.270391 177.951797 
L 101.087024 182.481736 
L 104.903657 186.72015 
L 108.720291 190.685464 
L 113.491082 195.284552 
L 118.261874 199.515938 
L 123.032665 203.408982 
L 127.803457 206.990724 
L 132.574248 210.286052 
L 137.34504 213.317868 
L 142.115832 216.107242 
L 146.886623 218.673563 
L 152.611573 221.483728 
L 158.336523 224.026437 
L 164.061473 226.327145 
L 169.786423 228.408884 
L 176.465531 230.588518 
L 183.144639 232.528105 
L 189.823747 234.254081 
L 197.457014 235.995119 
L 205.090281 237.518802 
L 213.677705 239.00679 
L 223.219289 240.418287 
L 233.71503 241.721954 
L 245.16493 242.896365 
L 257.568988 243.929644 
L 270.927204 244.818454 
L 286.193737 245.61007 
L 304.322745 246.313124 
L 325.314228 246.892382 
L 351.076503 247.366275 
L 383.517886 247.726969 
L 428.363327 247.983904 
L 498.016884 248.135999 
L 522.825 248.158508 
L 522.825 248.158508 
" clip-path="url(#p7ed3aa85fb)" style="fill: none; stroke: #4c78a8; stroke-opacity: 0.25; stroke-linecap: square"/>
   </g>
   <g id="line2d_19">
    <path d="M 46.7 248.2 
L 105.857816 248.2 
L 106.811974 228.905862 
L 107.766132 203.287038 
L 108.720291 183.038833 
L 109.674449 167.128902 
L 110.628607 154.72193 
L 111.582766 145.142051 
L 112.536924 137.842437 
L 113.491082 132.380682 
L 114.44524 128.398884 
L 115.399399 125.607527 
L 116.353557 123.772431 
L 117.307715 122.704203 
L 118.261874 122.249686 
L 119.216032 122.28505 
L 120.17019 122.710194 
L 121.124349 123.444221 
L 122.078507 124.421771 
L 123.986824 126.906464 
L 125.89514 129.852768 
L 128.757615 134.714924 
L 138.299198 151.307401 
L 142.115832 157.487175 
L 145.932465 163.308276 
L 149.749098 168.771036 
L 153.565731 173.888787 
L 157.382365 178.679587 
L 161.198998 183.162726 
L 165.015631 187.357277 
L 168.832265 191.281523 
L 173.603056 195.832959 
L 178.373848 200.020496 
L 183.144639 203.873194 
L 187.915431 207.417815 
L 192.686222 210.678991 
L 197.457014 213.679385 
L 202.227806 216.43985 
L 206.998597 218.979574 
L 212.723547 221.760614 
L 218.448497 224.276971 
L 224.173447 226.553834 
L 229.898397 228.613998 
L 236.577505 230.771043 
L 243.256613 232.690528 
L 250.88988 234.626763 
L 258.523146 236.321275 
L 267.110571 237.976089 
L 275.697996 239.400373 
L 285.239579 240.751441 
L 295.735321 241.999294 
L 307.18522 243.123426 
L 319.589279 244.112468 
L 333.901653 245.016732 
L 350.122345 245.802234 
L 368.251353 246.453124 
L 390.196994 247.009415 
L 416.913427 247.453443 
L 451.263126 247.790313 
L 499.9252 248.024913 
L 522.825 248.082642 
L 522.825 248.082642 
" clip-path="url(#p7ed3aa85fb)" style="fill: none; stroke: #4c78a8; stroke-opacity: 0.25; stroke-linecap: square"/>
   </g>
   <g id="line2d_20">
    <path d="M 46.7 248.2 
L 165.015631 248.2 
L 165.96979 240.149004 
L 166.923948 212.202054 
L 167.878106 190.072807 
L 168.832265 172.643591 
L 169.786423 159.010045 
L 170.740581 148.440426 
L 171.694739 140.342687 
L 172.648898 134.237828 
L 173.603056 129.738334 
L 174.557214 126.530722 
L 175.511373 124.361423 
L 176.465531 123.025348 
L 177.419689 122.356642 
L 178.373848 122.221196 
L 179.328006 122.510597 
L 180.282164 123.137215 
L 181.236323 124.030248 
L 183.144639 126.397796 
L 185.052956 129.275651 
L 187.915431 134.090761 
L 198.411172 152.295923 
L 202.227806 158.420598 
L 206.044439 164.185208 
L 209.861072 169.592998 
L 213.677705 174.658415 
L 217.494339 179.399867 
L 221.310972 183.836673 
L 225.127605 187.987807 
L 228.944238 191.871406 
L 233.71503 196.375683 
L 238.485822 200.519824 
L 243.256613 204.332594 
L 248.027405 207.84048 
L 252.798196 211.067857 
L 257.568988 214.037155 
L 262.33978 216.769011 
L 268.064729 219.760441 
L 273.789679 222.467163 
L 279.514629 224.916274 
L 285.239579 227.132292 
L 291.918687 229.45252 
L 298.597796 231.517217 
L 305.276904 233.354524 
L 312.91017 235.207865 
L 320.543437 236.82983 
L 329.130862 238.413798 
L 337.718287 239.777105 
L 347.25987 241.070331 
L 357.755611 242.264761 
L 369.205511 243.340766 
L 381.609569 244.287465 
L 395.921944 245.153015 
L 412.142635 245.904888 
L 431.225802 246.555553 
L 454.125601 247.097752 
L 481.796192 247.520261 
L 518.054208 247.839211 
L 522.825 247.868062 
L 522.825 247.868062 
" clip-path="url(#p7ed3aa85fb)" style="fill: none; stroke: #4c78a8; stroke-opacity: 0.25; stroke-linecap: square"/>
   </g>
   <g id="line2d_21">
    <path d="M 46.7 248.2 
L 225.127605 248.2 
L 227.035922 197.765586 
L 227.99008 178.690317 
L 228.944238 163.727626 
L 229.898397 152.085278 
L 230.852555 143.12227 
L 231.806713 136.319987 
L 232.760872 131.258854 
L 233.71503 127.599445 
L 234.669188 125.067195 
L 235.623347 123.440024 
L 236.577505 122.53833 
L 237.531663 122.216878 
L 238.485822 122.358252 
L 239.43998 122.867537 
L 240.394138 123.668035 
L 241.348297 124.697783 
L 243.256613 127.254523 
L 245.16493 130.242527 
L 248.981563 136.812395 
L 256.61483 150.110485 
L 261.385621 157.861604 
L 265.202255 163.660099 
L 269.018888 169.100829 
L 272.835521 174.197592 
L 276.652154 178.968596 
L 280.468788 183.433146 
L 284.285421 187.610277 
L 288.102054 191.518213 
L 292.872846 196.050727 
L 297.643637 200.220852 
L 302.414429 204.057529 
L 307.18522 207.58741 
L 311.956012 210.835023 
L 316.726804 213.82294 
L 321.497595 216.571926 
L 326.268387 219.101088 
L 331.993337 221.870564 
L 337.718287 224.376456 
L 343.443236 226.643851 
L 349.168186 228.695448 
L 355.847295 230.843522 
L 362.526403 232.755025 
L 370.159669 234.683208 
L 377.792936 236.370673 
L 386.380361 238.018606 
L 394.967786 239.436966 
L 404.509369 240.782416 
L 415.00511 242.02508 
L 426.45501 243.144537 
L 438.859068 244.129466 
L 453.171443 245.02997 
L 469.392134 245.812205 
L 487.521142 246.460389 
L 509.466784 247.014366 
L 522.825 247.261138 
L 522.825 247.261138 
" clip-path="url(#p7ed3aa85fb)" style="fill: none; stroke: #4c78a8; stroke-opacity: 0.25; stroke-linecap: square"/>
   </g>
   <g id="line2d_22">
    <path d="M 46.7 248.2 
L 284.285421 248.2 
L 285.239579 232.546362 
L 286.193737 206.172072 
L 287.147896 185.313503 
L 288.102054 168.910616 
L 289.056212 156.105686 
L 290.010371 146.204714 
L 290.964529 138.646193 
L 291.918687 132.975843 
L 292.872846 128.826149 
L 293.827004 125.899818 
L 294.781162 123.956376 
L 295.735321 122.801336 
L 296.689479 122.27742 
L 297.643637 122.257462 
L 298.597796 122.638663 
L 299.551954 123.337942 
L 300.506112 124.288171 
L 302.414429 126.735057 
L 304.322745 129.659353 
L 307.18522 134.506538 
L 316.726804 151.108717 
L 320.543437 157.299431 
L 324.36007 163.131838 
L 328.176703 168.605633 
L 331.993337 173.733905 
L 335.80997 178.534632 
L 339.626603 183.027094 
L 343.443236 187.230382 
L 347.25987 191.162807 
L 352.030661 195.723734 
L 356.801453 199.920004 
L 361.572244 203.780738 
L 366.343036 207.332752 
L 371.113828 210.60073 
L 375.884619 213.607382 
L 380.655411 216.373606 
L 385.426202 218.918626 
L 391.151152 221.705468 
L 396.876102 224.227073 
L 402.601052 226.508685 
L 408.326002 228.573146 
L 415.00511 230.73469 
L 421.684218 232.658179 
L 429.317485 234.598452 
L 436.950752 236.296498 
L 445.538176 237.954764 
L 454.125601 239.382019 
L 463.667184 240.735904 
L 474.162926 241.986361 
L 485.612826 243.112837 
L 498.016884 244.103942 
L 512.329259 245.010093 
L 522.825 245.544496 
L 522.825 245.544496 
" clip-path="url(#p7ed3aa85fb)" style="fill: none; stroke: #4c78a8; stroke-opacity: 0.25; stroke-linecap: square"/>
   </g>
   <g id="line2d_23">
    <path d="M 46.7 248.2 
L 343.443236 248.2 
L 344.397395 244.116957 
L 345.351553 215.351703 
L 346.305711 192.561244 
L 347.25987 174.59793 
L 348.214028 160.533137 
L 349.168186 149.615491 
L 350.122345 141.237054 
L 351.076503 134.905971 
L 352.030661 130.22432 
L 352.98482 126.870199 
L 353.938978 124.583224 
L 354.893136 123.152792 
L 355.847295 122.408586 
L 356.801453 122.212888 
L 357.755611 122.454359 
L 358.70977 123.043009 
L 359.663928 123.906119 
L 360.618086 124.984949 
L 362.526403 127.609192 
L 365.388878 132.240638 
L 371.113828 142.295228 
L 375.884619 150.510732 
L 379.701253 156.734087 
L 383.517886 162.600416 
L 387.334519 168.107398 
L 391.151152 173.267339 
L 394.967786 178.097959 
L 398.784419 182.618501 
L 402.601052 186.848106 
L 406.417685 190.805173 
L 411.188477 195.394691 
L 415.959269 199.617271 
L 420.73006 203.502212 
L 425.500852 207.076498 
L 430.271643 210.364967 
L 435.042435 213.390473 
L 439.813226 216.174041 
L 444.584018 218.73502 
L 450.308968 221.539336 
L 456.033918 224.076753 
L 461.758868 226.372672 
L 467.483818 228.450078 
L 474.162926 230.625175 
L 480.842034 232.560725 
L 487.521142 234.283109 
L 495.154409 236.020523 
L 502.787675 237.541035 
L 511.3751 239.025925 
L 520.916683 240.434485 
L 522.825 240.689102 
L 522.825 240.689102 
" clip-path="url(#p7ed3aa85fb)" style="fill: none; stroke: #4c78a8; stroke-opacity: 0.25; stroke-linecap: square"/>
   </g>
   <g id="line2d_24">
    <path d="M 46.7 248.2 
L 403.55521 248.2 
L 406.417685 180.831698 
L 407.371844 165.401719 
L 408.326002 153.382182 
L 409.28016 144.114884 
L 410.234319 137.067289 
L 411.188477 131.808558 
L 412.142635 127.990149 
L 413.096794 125.33012 
L 414.050952 123.600423 
L 415.00511 122.616622 
L 415.959269 122.229577 
L 416.913427 122.318704 
L 417.867585 122.786532 
L 418.821743 123.55429 
L 419.775902 124.558339 
L 421.684218 127.079639 
L 423.592535 130.047172 
L 427.409168 136.601802 
L 435.042435 149.909891 
L 439.813226 157.674566 
L 443.62986 163.484363 
L 447.446493 168.936101 
L 451.263126 174.043349 
L 455.07976 178.824241 
L 458.896393 183.298077 
L 462.713026 187.483909 
L 466.529659 191.399991 
L 471.300451 195.941957 
L 476.071242 200.120778 
L 480.842034 203.965457 
L 485.612826 207.502701 
L 490.383617 210.757088 
L 495.154409 213.751237 
L 499.9252 216.505957 
L 504.695992 219.040394 
L 510.420942 221.815646 
L 516.145892 224.326765 
L 521.870842 226.598889 
L 522.825 226.955971 
L 522.825 226.955971 
" clip-path="url(#p7ed3aa85fb)" style="fill: none; stroke: #4c78a8; stroke-opacity: 0.25; stroke-linecap: square"/>
   </g>
   <g id="line2d_25">
    <path d="M 46.7 248.2 
L 462.713026 248.2 
L 463.667184 236.29312 
L 464.621343 209.142971 
L 465.575501 187.657535 
L 466.529659 170.74834 
L 467.483818 157.534649 
L 468.437976 147.303841 
L 469.392134 139.479342 
L 470.346293 133.594675 
L 471.300451 129.272457 
L 472.254609 126.207408 
L 473.208768 124.152592 
L 474.162926 122.908291 
L 475.117084 122.312996 
L 476.071242 122.236117 
L 477.025401 122.572081 
L 477.979559 123.235567 
L 478.933717 124.157631 
L 480.842034 126.565481 
L 482.750351 129.466968 
L 485.612826 134.298477 
L 496.108567 152.492637 
L 499.9252 158.606223 
L 503.741834 164.359545 
L 507.558467 169.756385 
L 511.3751 174.811389 
L 515.191733 179.543028 
L 519.008367 183.970623 
L 522.825 188.113127 
L 522.825 188.113127 
" clip-path="url(#p7ed3aa85fb)" style="fill: none; stroke: #4c78a8; stroke-opacity: 0.25; stroke-linecap: square"/>
   </g>
   <g id="line2d_26">
    <path d="M 46.7 248.2 
L 522.825 248.2 
L 522.825 248.2 
" clip-path="url(#p7ed3aa85fb)" style="fill: none; stroke: #4c78a8; stroke-opacity: 0.25; stroke-linecap: square"/>
   </g>
   <g id="line2d_27">
    <path d="M 46.7 248.2 
L 47.654158 218.594364 
L 48.608317 195.124826 
L 49.562475 176.612957 
L 50.516633 162.105221 
L 51.470792 150.830083 
L 52.42495 142.163292 
L 53.379108 135.599789 
L 54.333267 130.73097 
L 55.287425 127.226286 
L 56.241583 124.818357 
L 57.195741 123.290917 
L 58.1499 122.469068 
L 59.104058 122.211383 
L 60.058216 122.403524 
L 61.012375 122.953073 
L 61.966533 123.785347 
L 62.920691 124.840015 
L 64.829008 127.431059 
L 66.737325 130.438796 
L 70.553958 137.023117 
L 78.187224 150.310766 
L 82.003858 156.544936 
L 85.820491 162.422572 
L 89.637124 167.940642 
L 93.453758 173.111174 
L 97.270391 177.951797 
L 101.087024 182.481736 
L 104.903657 186.72015 
L 105.857816 187.736382 
L 106.811974 169.441692 
L 107.766132 144.805804 
L 108.720291 125.524298 
L 109.674449 110.565092 
L 110.628607 99.093134 
L 111.582766 90.432818 
L 112.536924 84.03757 
L 113.491082 79.465234 
L 114.44524 76.358156 
L 115.399399 74.42706 
L 116.353557 73.438007 
L 117.307715 73.201837 
L 118.261874 73.565625 
L 119.216032 74.405767 
L 120.17019 75.622387 
L 121.124349 77.134807 
L 123.032665 80.799039 
L 124.940982 85.014204 
L 128.757615 94.186866 
L 135.436723 110.389634 
L 139.253357 119.14665 
L 143.06999 127.414168 
L 146.886623 135.180736 
L 150.703257 142.460211 
L 154.51989 149.276096 
L 158.336523 155.654897 
L 162.153156 161.623351 
L 165.015631 165.845996 
L 165.96979 159.156306 
L 166.923948 132.548171 
L 167.878106 111.735617 
L 168.832265 95.601337 
L 169.786423 83.241327 
L 170.740581 73.924197 
L 171.694739 67.058246 
L 172.648898 62.164816 
L 173.603056 58.856729 
L 174.557214 56.820831 
L 175.511373 55.803879 
L 176.465531 55.601102 
L 177.419689 56.046961 
L 178.373848 57.007658 
L 179.328006 58.375082 
L 180.282164 60.061903 
L 182.190481 64.125309 
L 184.098798 68.781984 
L 187.915431 78.889895 
L 194.594539 96.71466 
L 198.411172 106.342833 
L 202.227806 115.43154 
L 206.044439 123.968998 
L 209.861072 131.970784 
L 213.677705 139.462882 
L 217.494339 146.474489 
L 221.310972 153.035024 
L 225.127605 159.172903 
L 227.035922 111.657423 
L 227.99008 94.005547 
L 228.944238 80.442726 
L 229.898397 70.177112 
L 230.852555 62.568085 
L 231.806713 57.097405 
L 232.760872 53.345865 
L 233.71503 50.974403 
L 234.669188 49.70881 
L 235.623347 49.327361 
L 236.577505 49.650796 
L 237.531663 50.534223 
L 238.485822 51.860558 
L 239.43998 53.535218 
L 241.348297 57.638739 
L 243.256613 62.394219 
L 247.073246 72.793169 
L 253.752355 91.221513 
L 257.568988 101.192205 
L 261.385621 110.608075 
L 265.202255 119.454482 
L 269.018888 127.74653 
L 272.835521 135.510697 
L 276.652154 142.777055 
L 280.468788 149.576005 
L 284.285421 155.936964 
L 285.239579 141.808439 
L 286.193737 116.934062 
L 287.147896 97.550621 
L 288.102054 82.598485 
L 289.056212 71.22033 
L 290.010371 62.722552 
L 290.964529 56.544034 
L 291.918687 52.230877 
L 292.872846 49.415944 
L 293.827004 47.802311 
L 294.781162 47.149869 
L 295.735321 47.264489 
L 296.689479 47.989246 
L 297.643637 49.197321 
L 298.597796 50.786256 
L 300.506112 54.791667 
L 302.414429 59.517213 
L 305.276904 67.293123 
L 314.818487 93.765077 
L 318.63512 103.616698 
L 322.451754 112.895483 
L 326.268387 121.602627 
L 330.08502 129.759667 
L 333.901653 137.395507 
L 337.718287 144.540945 
L 341.53492 151.226402 
L 343.443236 154.405808 
L 344.397395 151.873183 
L 345.351553 124.632732 
L 346.305711 103.341879 
L 347.25987 86.853389 
L 348.214028 74.239048 
L 349.168186 64.747882 
L 350.122345 57.772349 
L 351.076503 52.820982 
L 352.030661 49.496242 
L 352.98482 47.476604 
L 353.938978 46.502054 
L 354.893136 46.362353 
L 355.847295 46.887543 
L 356.801453 47.940257 
L 357.755611 49.409504 
L 358.70977 51.205635 
L 360.618086 55.502986 
L 362.526403 60.405412 
L 366.343036 71.014358 
L 373.022144 89.684445 
L 376.838778 99.762247 
L 380.655411 109.273768 
L 384.472044 118.207706 
L 388.288677 126.580801 
L 392.105311 134.420429 
L 395.921944 141.757226 
L 399.738577 148.622006 
L 403.55521 155.04452 
L 406.417685 92.219911 
L 407.371844 78.254717 
L 408.326002 67.675758 
L 409.28016 59.825228 
L 410.234319 54.170985 
L 411.188477 50.282576 
L 412.142635 47.811839 
L 413.096794 46.477206 
L 414.050952 46.050997 
L 415.00511 46.349138 
L 415.959269 47.222844 
L 416.913427 48.551882 
L 417.867585 50.239125 
L 419.775902 54.389624 
L 421.684218 59.211624 
L 425.500852 69.773348 
L 432.17996 88.510425 
L 435.996593 98.651841 
L 439.813226 108.229789 
L 443.62986 117.228837 
L 447.446493 125.664114 
L 451.263126 133.56246 
L 455.07976 140.954421 
L 458.896393 147.870908 
L 462.713026 154.341836 
L 463.667184 143.986437 
L 464.621343 118.362132 
L 465.575501 98.377327 
L 466.529659 82.943964 
L 467.483818 71.181715 
L 468.437976 62.378361 
L 469.392134 55.957724 
L 470.346293 51.453714 
L 471.300451 48.489334 
L 472.254609 46.759677 
L 473.208768 46.018182 
L 474.162926 46.065493 
L 475.117084 46.740459 
L 476.071242 47.912843 
L 477.025401 49.477422 
L 478.933717 53.459606 
L 480.842034 58.185511 
L 483.704509 65.988113 
L 493.246092 92.625481 
L 497.062725 102.547669 
L 500.879359 111.894147 
L 504.695992 120.665338 
L 508.512625 128.882602 
L 512.329259 136.574915 
L 516.145892 143.77324 
L 519.962525 150.508196 
L 522.825 155.273046 
L 522.825 155.273046 
" clip-path="url(#p7ed3aa85fb)" style="fill: none; stroke: #c23b22; stroke-width: 2; stroke-linecap: square"/>
   </g>
   <g id="patch_4">
    <path d="M 46.7 248.2 
L 46.7 25.8 
" style="fill: none; stroke: #000000; stroke-width: 0.8; stroke-linejoin: miter; stroke-linecap: square"/>
   </g>
   <g id="patch_5">
    <path d="M 522.825 248.2 
L 522.825 25.8 
" style="fill: none; stroke: #000000; stroke-width: 0.8; stroke-linejoin: miter; stroke-linecap: square"/>
   </g>
   <g id="patch_6">
    <path d="M 46.7 248.2 
L 522.825 248.2 
" style="fill: none; stroke: #000000; stroke-width: 0.8; stroke-linejoin: miter; stroke-linecap: square"/>
   </g>
   <g id="patch_7">
    <path d="M 46.7 25.8 
L 522.825 25.8 
" style="fill: none; stroke: #000000; stroke-width: 0.8; stroke-linejoin: miter; stroke-linecap: square"/>
   </g>
   <g id="text_20">
    <!-- Steady-state band -->
    <g style="fill: #1b4d2c" transform="translate(183.882031 151.298636) scale(0.09 -0.09)">
     <defs>
      <path id="DejaVuSans-53" d="M 3425 4513 
L 3425 3897 
Q 3066 4069 2747 4153 
Q 2428 4238 2131 4238 
Q 1616 4238 1336 4038 
Q 1056 3838 1056 3469 
Q 1056 3159 1242 3001 
Q 1428 2844 1947 2747 
L 2328 2669 
Q 3034 2534 3370 2195 
Q 3706 1856 3706 1288 
Q 3706 609 3251 259 
Q 2797 -91 1919 -91 
Q 1588 -91 1214 -16 
Q 841 59 441 206 
L 441 856 
Q 825 641 1194 531 
Q 1563 422 1919 422 
Q 2459 422 2753 634 
Q 3047 847 3047 1241 
Q 3047 1584 2836 1778 
Q 2625 1972 2144 2069 
L 1759 2144 
Q 1053 2284 737 2584 
Q 422 2884 422 3419 
Q 422 4038 858 4394 
Q 1294 4750 2059 4750 
Q 2388 4750 2728 4690 
Q 3069 4631 3425 4513 
z
" transform="scale(0.015625)"/>
      <path id="DejaVuSans-64" d="M 2906 2969 
L 2906 4863 
L 3481 4863 
L 3481 0 
L 2906 0 
L 2906 525 
Q 2725 213 2448 61 
Q 2172 -91 1784 -91 
Q 1150 -91 751 415 
Q 353 922 353 1747 
Q 353 2572 751 3078 
Q 1150 3584 1784 3584 
Q 2172 3584 2448 3432 
Q 2725 3281 2906 2969 
z
M 947 1747 
Q 947 1113 1208 752 
Q 1469 391 1925 391 
Q 2381 391 2643 752 
Q 2906 1113 2906 1747 
Q 2906 2381 2643 2742 
Q 2381 3103 1925 3103 
Q 1469 3103 1208 2742 
Q 947 2381 947 1747 
z
" transform="scale(0.015625)"/>
      <path id="DejaVuSans-79" d="M 2059 -325 
Q 1816 -950 1584 -1140 
Q 1353 -1331 966 -1331 
L 506 -1331 
L 506 -850 
L 844 -850 
Q 1081 -850 1212 -737 
Q 1344 -625 1503 -206 
L 1606 56 
L 191 3500 
L 800 3500 
L 1894 763 
L 2988 3500 
L 3597 3500 
L 2059 -325 
z
" transform="scale(0.015625)"/>
      <path id="DejaVuSans-2d" d="M 313 2009 
L 1997 2009 
L 1997 1497 
L 313 1497 
L 313 2009 
z
" transform="scale(0.015625)"/>
      <path id="DejaVuSans-62" d="M 3116 1747 
Q 3116 2381 2855 2742 
Q 2594 3103 2138 3103 
Q 1681 3103 1420 2742 
Q 1159 2381 1159 1747 
Q 1159 1113 1420 752 
Q 1681 391 2138 391 
Q 2594 391 2855 752 
Q 3116 1113 3116 1747 
z
M 1159 2969 
Q 1341 3281 1617 3432 
Q 1894 3584 2278 3584 
Q 2916 3584 3314 3078 
Q 3713 2572 3713 1747 
Q 3713 922 3314 415 
Q 2916 -91 2278 -91 
Q 1894 -91 1617 61 
Q 1341 213 1159 525 
L 1159 0 
L 581 0 
L 581 4863 
L 1159 4863 
L 1159 2969 
z
" transform="scale(0.015625)"/>
     </defs>
     <use xlink:href="#DejaVuSans-53"/>
     <use xlink:href="#DejaVuSans-74" x="63.476562"/>
     <use xlink:href="#DejaVuSans-65" x="102.685547"/>
     <use xlink:href="#DejaVuSans-61" x="164.208984"/>
     <use xlink:href="#DejaVuSans-64" x="225.488281"/>
     <use xlink:href="#DejaVuSans-79" x="288.964844"/>
     <use xlink:href="#DejaVuSans-2d" x="346.394531"/>
     <use xlink:href="#DejaVuSans-73" x="382.478516"/>
     <use xlink:href="#DejaVuSans-74" x="434.578125"/>
     <use xlink:href="#DejaVuSans-61" x="473.787109"/>
     <use xlink:href="#DejaVuSans-74" x="535.066406"/>
     <use xlink:href="#DejaVuSans-65" x="574.275391"/>
     <use xlink:href="#DejaVuSans-20" x="635.798828"/>
     <use xlink:href="#DejaVuSans-62" x="667.585938"/>
     <use xlink:href="#DejaVuSans-61" x="731.0625"/>
     <use xlink:href="#DejaVuSans-6e" x="792.341797"/>
     <use xlink:href="#DejaVuSans-64" x="855.720703"/>
    </g>
   </g>
   <g id="patch_8">
    <path d="M 90.034921 132.639925 
Q 68.718578 189.483646 47.794802 245.28052 
" style="fill: none; stroke: #4c78a8; stroke-linecap: round"/>
    <path d="M 50.744237 242.541755 
L 47.794802 245.28052 
L 47.373451 241.277713 
" style="fill: none; stroke: #4c78a8; stroke-linecap: round"/>
   </g>
   <g id="text_21">
    <!-- First dose -->
    <g style="fill: #4c78a8" transform="translate(71.498177 126.890909) scale(0.09 -0.09)">
     <defs>
      <path id="DejaVuSans-46" d="M 628 4666 
L 3309 4666 
L 3309 4134 
L 1259 4134 
L 1259 2759 
L 3109 2759 
L 3109 2228 
L 1259 2228 
L 1259 0 
L 628 0 
L 628 4666 
z
" transform="scale(0.015625)"/>
     </defs>
     <use xlink:href="#DejaVuSans-46"/>
     <use xlink:href="#DejaVuSans-69" x="50.269531"/>
     <use xlink:href="#DejaVuSans-72" x="78.052734"/>
     <use xlink:href="#DejaVuSans-73" x="119.166016"/>
     <use xlink:href="#DejaVuSans-74" x="171.265625"/>
     <use xlink:href="#DejaVuSans-20" x="210.474609"/>
     <use xlink:href="#DejaVuSans-64" x="242.261719"/>
     <use xlink:href="#DejaVuSans-6f" x="305.738281"/>
     <use xlink:href="#DejaVuSans-73" x="366.919922"/>
     <use xlink:href="#DejaVuSans-65" x="419.019531"/>
    </g>
   </g>
   <g id="patch_9">
    <path d="M 354.732786 87.910252 
Q 313.205414 108.380803 272.680858 128.357025 
" style="fill: none; stroke: #c23b22; stroke-linecap: round"/>
    <path d="M 276.705716 128.379818 
L 272.680858 128.357025 
L 275.114007 125.150815 
" style="fill: none; stroke: #c23b22; stroke-linecap: round"/>
   </g>
   <g id="text_22">
    <!-- Peaks converge -->
    <g style="fill: #c23b22" transform="translate(344.278125 73.074957) scale(0.09 -0.09)">
     <defs>
      <path id="DejaVuSans-50" d="M 1259 4147 
L 1259 2394 
L 2053 2394 
Q 2494 2394 2734 2622 
Q 2975 2850 2975 3272 
Q 2975 3691 2734 3919 
Q 2494 4147 2053 4147 
L 1259 4147 
z
M 628 4666 
L 2053 4666 
Q 2838 4666 3239 4311 
Q 3641 3956 3641 3272 
Q 3641 2581 3239 2228 
Q 2838 1875 2053 1875 
L 1259 1875 
L 1259 0 
L 628 0 
L 628 4666 
z
" transform="scale(0.015625)"/>
      <path id="DejaVuSans-6b" d="M 581 4863 
L 1159 4863 
L 1159 1991 
L 2875 3500 
L 3609 3500 
L 1753 1863 
L 3688 0 
L 2938 0 
L 1159 1709 
L 1159 0 
L 581 0 
L 581 4863 
z
" transform="scale(0.015625)"/>
      <path id="DejaVuSans-67" d="M 2906 1791 
Q 2906 2416 2648 2759 
Q 2391 3103 1925 3103 
Q 1463 3103 1205 2759 
Q 947 2416 947 1791 
Q 947 1169 1205 825 
Q 1463 481 1925 481 
Q 2391 481 2648 825 
Q 2906 1169 2906 1791 
z
M 3481 434 
Q 3481 -459 3084 -895 
Q 2688 -1331 1869 -1331 
Q 1566 -1331 1297 -1286 
Q 1028 -1241 775 -1147 
L 775 -588 
Q 1028 -725 1275 -790 
Q 1522 -856 1778 -856 
Q 2344 -856 2625 -561 
Q 2906 -266 2906 331 
L 2906 616 
Q 2728 306 2450 153 
Q 2172 0 1784 0 
Q 1141 0 747 490 
Q 353 981 353 1791 
Q 353 2603 747 3093 
Q 1141 3584 1784 3584 
Q 2172 3584 2450 3431 
Q 2728 3278 2906 2969 
L 2906 3500 
L 3481 3500 
L 3481 434 
z
" transform="scale(0.015625)"/>
     </defs>
     <use xlink:href="#DejaVuSans-50"/>
     <use xlink:href="#DejaVuSans-65" x="56.677734"/>
     <use xlink:href="#DejaVuSans-61" x="118.201172"/>
     <use xlink:href="#DejaVuSans-6b" x="179.480469"/>
     <use xlink:href="#DejaVuSans-73" x="237.390625"/>
     <use xlink:href="#DejaVuSans-20" x="289.490234"/>
     <use xlink:href="#DejaVuSans-63" x="321.277344"/>
     <use xlink:href="#DejaVuSans-6f" x="376.257812"/>
     <use xlink:href="#DejaVuSans-6e" x="437.439453"/>
     <use xlink:href="#DejaVuSans-76" x="500.818359"/>
     <use xlink:href="#DejaVuSans-65" x="559.998047"/>
     <use xlink:href="#DejaVuSans-72" x="621.521484"/>
     <use xlink:href="#DejaVuSans-67" x="660.884766"/>
     <use xlink:href="#DejaVuSans-65" x="724.361328"/>
    </g>
    <!-- by steady state -->
    <g style="fill: #c23b22" transform="translate(344.278125 83.152989) scale(0.09 -0.09)">
     <use xlink:href="#DejaVuSans-62"/>
     <use xlink:href="#DejaVuSans-79" x="63.476562"/>
     <use xlink:href="#DejaVuSans-20" x="122.65625"/>
     <use xlink:href="#DejaVuSans-73" x="154.443359"/>
     <use xlink:href="#DejaVuSans-74" x="206.542969"/>
     <use xlink:href="#DejaVuSans-65" x="245.751953"/>
     <use xlink:href="#DejaVuSans-61" x="307.275391"/>
     <use xlink:href="#DejaVuSans-64" x="368.554688"/>
     <use xlink:href="#DejaVuSans-79" x="432.03125"/>
     <use xlink:href="#DejaVuSans-20" x="491.210938"/>
     <use xlink:href="#DejaVuSans-73" x="522.998047"/>
     <use xlink:href="#DejaVuSans-74" x="575.097656"/>
     <use xlink:href="#DejaVuSans-61" x="614.306641"/>
     <use xlink:href="#DejaVuSans-74" x="675.585938"/>
     <use xlink:href="#DejaVuSans-65" x="714.794922"/>
    </g>
   </g>
   <g id="text_23">
    <!-- Superposition of Repeated Doses Approaching Steady State -->
    <g transform="translate(104.782188 19.8) scale(0.12 -0.12)">
     <defs>
      <path id="DejaVuSans-66" d="M 2375 4863 
L 2375 4384 
L 1825 4384 
Q 1516 4384 1395 4259 
Q 1275 4134 1275 3809 
L 1275 3500 
L 2222 3500 
L 2222 3053 
L 1275 3053 
L 1275 0 
L 697 0 
L 697 3053 
L 147 3053 
L 147 3500 
L 697 3500 
L 697 3744 
Q 697 4328 969 4595 
Q 1241 4863 1831 4863 
L 2375 4863 
z
" transform="scale(0.015625)"/>
      <path id="DejaVuSans-44" d="M 1259 4147 
L 1259 519 
L 2022 519 
Q 2988 519 3436 956 
Q 3884 1394 3884 2338 
Q 3884 3275 3436 3711 
Q 2988 4147 2022 4147 
L 1259 4147 
z
M 628 4666 
L 1925 4666 
Q 3281 4666 3915 4102 
Q 4550 3538 4550 2338 
Q 4550 1131 3912 565 
Q 3275 0 1925 0 
L 628 0 
L 628 4666 
z
" transform="scale(0.015625)"/>
      <path id="DejaVuSans-41" d="M 2188 4044 
L 1331 1722 
L 3047 1722 
L 2188 4044 
z
M 1831 4666 
L 2547 4666 
L 4325 0 
L 3669 0 
L 3244 1197 
L 1141 1197 
L 716 0 
L 50 0 
L 1831 4666 
z
" transform="scale(0.015625)"/>
     </defs>
     <use xlink:href="#DejaVuSans-53"/>
     <use xlink:href="#DejaVuSans-75" x="63.476562"/>
     <use xlink:href="#DejaVuSans-70" x="126.855469"/>
     <use xlink:href="#DejaVuSans-65" x="190.332031"/>
     <use xlink:href="#DejaVuSans-72" x="251.855469"/>
     <use xlink:href="#DejaVuSans-70" x="292.96875"/>
     <use xlink:href="#DejaVuSans-6f" x="356.445312"/>
     <use xlink:href="#DejaVuSans-73" x="417.626953"/>
     <use xlink:href="#DejaVuSans-69" x="469.726562"/>
     <use xlink:href="#DejaVuSans-74" x="497.509766"/>
     <use xlink:href="#DejaVuSans-69" x="536.71875"/>
     <use xlink:href="#DejaVuSans-6f" x="564.501953"/>
     <use xlink:href="#DejaVuSans-6e" x="625.683594"/>
     <use xlink:href="#DejaVuSans-20" x="689.0625"/>
     <use xlink:href="#DejaVuSans-6f" x="720.849609"/>
     <use xlink:href="#DejaVuSans-66" x="782.03125"/>
     <use xlink:href="#DejaVuSans-20" x="817.236328"/>
     <use xlink:href="#DejaVuSans-52" x="849.023438"/>
     <use xlink:href="#DejaVuSans-65" x="914.005859"/>
     <use xlink:href="#DejaVuSans-70" x="975.529297"/>
     <use xlink:href="#DejaVuSans-65" x="1039.005859"/>
     <use xlink:href="#DejaVuSans-61" x="1100.529297"/>
     <use xlink:href="#DejaVuSans-74" x="1161.808594"/>
     <use xlink:href="#DejaVuSans-65" x="1201.017578"/>
     <use xlink:href="#DejaVuSans-64" x="1262.541016"/>
     <use xlink:href="#DejaVuSans-20" x="1326.017578"/>
     <use xlink:href="#DejaVuSans-44" x="1357.804688"/>
     <use xlink:href="#DejaVuSans-6f" x="1434.806641"/>
     <use xlink:href="#DejaVuSans-73" x="1495.988281"/>
     <use xlink:href="#DejaVuSans-65" x="1548.087891"/>
     <use xlink:href="#DejaVuSans-73" x="1609.611328"/>
     <use xlink:href="#DejaVuSans-20" x="1661.710938"/>
     <use xlink:href="#DejaVuSans-41" x="1693.498047"/>
     <use xlink:href="#DejaVuSans-70" x="1761.90625"/>
     <use xlink:href="#DejaVuSans-70" x="1825.382812"/>
     <use xlink:href="#DejaVuSans-72" x="1888.859375"/>
     <use xlink:href="#DejaVuSans-6f" x="1927.722656"/>
     <use xlink:href="#DejaVuSans-61" x="1988.904297"/>
     <use xlink:href="#DejaVuSans-63" x="2050.183594"/>
     <use xlink:href="#DejaVuSans-68" x="2105.164062"/>
     <use xlink:href="#DejaVuSans-69" x="2168.542969"/>
     <use xlink:href="#DejaVuSans-6e" x="2196.326172"/>
     <use xlink:href="#DejaVuSans-67" x="2259.705078"/>
     <use xlink:href="#DejaVuSans-20" x="2323.181641"/>
     <use xlink:href="#DejaVuSans-53" x="2354.96875"/>
     <use xlink:href="#DejaVuSans-74" x="2418.445312"/>
     <use xlink:href="#DejaVuSans-65" x="2457.654297"/>
     <use xlink:href="#DejaVuSans-61" x="2519.177734"/>
     <use xlink:href="#DejaVuSans-64" x="2580.457031"/>
     <use xlink:href="#DejaVuSans-79" x="2643.933594"/>
     <use xlink:href="#DejaVuSans-20" x="2703.113281"/>
     <use xlink:href="#DejaVuSans-53" x="2734.900391"/>
     <use xlink:href="#DejaVuSans-74" x="2798.376953"/>
     <use xlink:href="#DejaVuSans-61" x="2837.585938"/>
     <use xlink:href="#DejaVuSans-74" x="2898.865234"/>
     <use xlink:href="#DejaVuSans-65" x="2938.074219"/>
    </g>
   </g>
   <g id="legend_1">
    <g id="line2d_28">
     <path d="M 54.8 37.588594 
L 63.8 37.588594 
L 72.8 37.588594 
" style="fill: none; stroke: #c23b22; stroke-width: 2; stroke-linecap: square"/>
    </g>
    <g id="text_24">
     <!-- Total concentration -->
     <g transform="translate(80 40.738594) scale(0.09 -0.09)">
      <use xlink:href="#DejaVuSans-54"/>
      <use xlink:href="#DejaVuSans-6f" x="44.083984"/>
      <use xlink:href="#DejaVuSans-74" x="105.265625"/>
      <use xlink:href="#DejaVuSans-61" x="144.474609"/>
      <use xlink:href="#DejaVuSans-6c" x="205.753906"/>
      <use xlink:href="#DejaVuSans-20" x="233.537109"/>
      <use xlink:href="#DejaVuSans-63" x="265.324219"/>
      <use xlink:href="#DejaVuSans-6f" x="320.304688"/>
      <use xlink:href="#DejaVuSans-6e" x="381.486328"/>
      <use xlink:href="#DejaVuSans-63" x="444.865234"/>
      <use xlink:href="#DejaVuSans-65" x="499.845703"/>
      <use xlink:href="#DejaVuSans-6e" x="561.369141"/>
      <use xlink:href="#DejaVuSans-74" x="624.748047"/>
      <use xlink:href="#DejaVuSans-72" x="663.957031"/>
      <use xlink:href="#DejaVuSans-61" x="705.070312"/>
      <use xlink:href="#DejaVuSans-74" x="766.349609"/>
      <use xlink:href="#DejaVuSans-69" x="805.558594"/>
      <use xlink:href="#DejaVuSans-6f" x="833.341797"/>
      <use xlink:href="#DejaVuSans-6e" x="894.523438"/>
     </g>
    </g>
    <g id="patch_10">
     <path d="M 54.8 53.948906 
L 72.8 53.948906 
L 72.8 47.648906 
L 54.8 47.648906 
z
" style="fill: #3ba272; opacity: 0.12; stroke: #3ba272; stroke-linejoin: miter"/>
    </g>
    <g id="text_25">
     <!-- 45 half-lives -->
     <g transform="translate(80 53.948906) scale(0.09 -0.09)">
      <defs>
       <path id="DejaVuSans-2013" d="M 313 1978 
L 2888 1978 
L 2888 1528 
L 313 1528 
L 313 1978 
z
" transform="scale(0.015625)"/>
       <path id="DejaVuSans-35" d="M 691 4666 
L 3169 4666 
L 3169 4134 
L 1269 4134 
L 1269 2991 
Q 1406 3038 1543 3061 
Q 1681 3084 1819 3084 
Q 2600 3084 3056 2656 
Q 3513 2228 3513 1497 
Q 3513 744 3044 326 
Q 2575 -91 1722 -91 
Q 1428 -91 1123 -41 
Q 819 9 494 109 
L 494 744 
Q 775 591 1075 516 
Q 1375 441 1709 441 
Q 2250 441 2565 725 
Q 2881 1009 2881 1497 
Q 2881 1984 2565 2268 
Q 2250 2553 1709 2553 
Q 1456 2553 1204 2497 
Q 953 2441 691 2322 
L 691 4666 
z
" transform="scale(0.015625)"/>
      </defs>
      <use xlink:href="#DejaVuSans-34"/>
      <use xlink:href="#DejaVuSans-2013" x="63.623047"/>
      <use xlink:href="#DejaVuSans-35" x="113.623047"/>
      <use xlink:href="#DejaVuSans-20" x="177.246094"/>
      <use xlink:href="#DejaVuSans-68" x="209.033203"/>
      <use xlink:href="#DejaVuSans-61" x="272.412109"/>
      <use xlink:href="#DejaVuSans-6c" x="333.691406"/>
      <use xlink:href="#DejaVuSans-66" x="361.474609"/>
      <use xlink:href="#DejaVuSans-2d" x="391.179688"/>
      <use xlink:href="#DejaVuSans-6c" x="427.263672"/>
      <use xlink:href="#DejaVuSans-69" x="455.046875"/>
      <use xlink:href="#DejaVuSans-76" x="482.830078"/>
      <use xlink:href="#DejaVuSans-65" x="542.009766"/>
      <use xlink:href="#DejaVuSans-73" x="603.533203"/>
     </g>
    </g>
   </g>
  </g>
 </g>
 <defs>
  <clipPath id="p7ed3aa85fb">
   <rect x="46.7" y="25.8" width="476.125" height="222.4"/>
  </clipPath>
 </defs>
</svg>
