<svg xmlns="http://www.w3.org/2000/svg" width="800" height="400"><rect x="0" y="0" width="800" height="400" fill="white" /><line x1="80" y1="340" x2="770" y2="340" stroke="#333" stroke-width="2" /><line x1="80" y1="40" x2="80" y2="340" stroke="#333" stroke-width="2" /><line x1="80" y1="340.00" x2="770" y2="340.00" stroke="#ddd" stroke-width="1" /><text x="70" y="344.00" font-size="14" text-anchor="end" fill="#555">42.1</text><line x1="80" y1="265.00" x2="770" y2="265.00" stroke="#ddd" stroke-width="1" /><text x="70" y="269.00" font-size="14" text-anchor="end" fill="#555">47.0</text><line x1="80" y1="190.00" x2="770" y2="190.00" stroke="#ddd" stroke-width="1" /><text x="70" y="194.00" font-size="14" text-anchor="end" fill="#555">52.0</text><line x1="80" y1="115.00" x2="770" y2="115.00" stroke="#ddd" stroke-width="1" /><text x="70" y="119.00" font-size="14" text-anchor="end" fill="#555">57.0</text><line x1="80" y1="40.00" x2="770" y2="40.00" stroke="#ddd" stroke-width="1" /><text x="70" y="44.00" font-size="14" text-anchor="end" fill="#555">61.9</text><line x1="80.00" y1="40" x2="80.00" y2="340" stroke="#f0f0f0" stroke-width="1" /><text x="80.00" y="365" font-size="14" text-anchor="middle" fill="#555">0</text><line x1="137.50" y1="40" x2="137.50" y2="340" stroke="#f0f0f0" stroke-width="1" /><text x="137.50" y="365" font-size="14" text-anchor="middle" fill="#555">7</text><line x1="195.00" y1="40" x2="195.00" y2="340" stroke="#f0f0f0" stroke-width="1" /><text x="195.00" y="365" font-size="14" text-anchor="middle" fill="#555">14</text><line x1="310.00" y1="40" x2="310.00" y2="340" stroke="#f0f0f0" stroke-width="1" /><text x="310.00" y="365" font-size="14" text-anchor="middle" fill="#555">28</text><line x1="540.00" y1="40" x2="540.00" y2="340" stroke="#f0f0f0" stroke-width="1" /><text x="540.00" y="365" font-size="14" text-anchor="middle" fill="#555">56</text><line x1="770.00" y1="40" x2="770.00" y2="340" stroke="#f0f0f0" stroke-width="1" /><text x="770.00" y="365" font-size="14" text-anchor="middle" fill="#555">84</text><text x="400.0" y="30" font-size="18" text-anchor="middle" fill="#222">Single-Patient Posterior Predictive Check</text><text x="400.0" y="385" font-size="16" text-anchor="middle" fill="#222">Time (days)</text><text x="25" y="190.0" font-size="16" text-anchor="middle" fill="#222" transform="rotate(-90 25,190.0)">BCVA score (letters)</text><polygon points="80.00,259.70 137.50,226.36 195.00,182.42 310.00,126.36 540.00,77.88 770.00,55.15 770.00,130.91 540.00,152.12 310.00,196.06 195.00,250.61 137.50,288.48 80.00,324.85" fill="#f5b77e" opacity="0.35" stroke="none" /><polyline points="80.00,293.03 137.50,259.70 195.00,215.76 310.00,162.73 540.00,115.76 770.00,96.06" fill="none" stroke="#f19223" stroke-width="3" /><circle cx="80.00" cy="296.06" r="5" fill="#1f77b4" stroke="white" stroke-width="1.5" /><circle cx="137.50" cy="258.18" r="5" fill="#1f77b4" stroke="white" stroke-width="1.5" /><circle cx="195.00" cy="220.30" r="5" fill="#1f77b4" stroke="white" stroke-width="1.5" /><circle cx="310.00" cy="159.70" r="5" fill="#1f77b4" stroke="white" stroke-width="1.5" /><circle cx="540.00" cy="114.24" r="5" fill="#1f77b4" stroke="white" stroke-width="1.5" /><circle cx="770.00" cy="91.52" r="5" fill="#1f77b4" stroke="white" stroke-width="1.5" /><rect x="570" y="45" width="190" height="90" fill="white" stroke="#ccc" stroke-width="1" rx="6" /><circle cx="585" cy="65" r="6" fill="#1f77b4" stroke="white" stroke-width="1.5" /><text x="600" y="69" font-size="14" fill="#333">Observed</text><line x1="579" y1="92" x2="591" y2="92" stroke="#f19223" stroke-width="3" /><text x="600" y="97" font-size="14" fill="#333">Posterior mean</text><rect x="578" y="112" width="14" height="10" fill="#f5b77e" opacity="0.35" stroke="none" /><text x="600" y="121" font-size="14" fill="#333">90% posterior interval</text></svg>