<?xml version="1.0" encoding="UTF-8" standalone="no"?>
<!DOCTYPE svg PUBLIC "-//W3C//DTD SVG 1.1//EN"
 "http://www.w3.org/Graphics/SVG/1.1/DTD/svg11.dtd">
<!-- Generated by graphviz version 2.42.4 (0)
 -->
<!-- Pages: 1 -->
<svg width="771pt" height="138pt"
 viewBox="0.00 0.00 771.00 137.95" xmlns="http://www.w3.org/2000/svg" xmlns:xlink="http://www.w3.org/1999/xlink">
<g id="graph0" class="graph" transform="scale(1 1) rotate(0) translate(4 133.95)">
<polygon fill="white" stroke="transparent" points="-4,4 -4,-133.95 767,-133.95 767,4 -4,4"/>
<g id="clust1" class="cluster">
<title>clustersupport (3)</title>
<path fill="none" stroke="black" d="M20,-8C20,-8 242,-8 242,-8 248,-8 254,-14 254,-20 254,-20 254,-109.95 254,-109.95 254,-115.95 248,-121.95 242,-121.95 242,-121.95 20,-121.95 20,-121.95 14,-121.95 8,-115.95 8,-109.95 8,-109.95 8,-20 8,-20 8,-14 14,-8 20,-8"/>
<text text-anchor="middle" x="206" y="-15.8" font-family="Times,serif" font-size="14.00">support (3)</text>
</g>
<g id="clust2" class="cluster">
<title>clusterbatch (4) x support (3)</title>
<path fill="none" stroke="black" d="M274,-8C274,-8 743,-8 743,-8 749,-8 755,-14 755,-20 755,-20 755,-109.95 755,-109.95 755,-115.95 749,-121.95 743,-121.95 743,-121.95 274,-121.95 274,-121.95 268,-121.95 262,-115.95 262,-109.95 262,-109.95 262,-20 262,-20 262,-14 268,-8 274,-8"/>
<text text-anchor="middle" x="666.5" y="-15.8" font-family="Times,serif" font-size="14.00">batch (4) x support (3)</text>
</g>
<!-- vector -->
<g id="node1" class="node">
<title>vector</title>
<ellipse fill="none" stroke="black" cx="131" cy="-76.48" rx="114.6" ry="37.45"/>
<text text-anchor="middle" x="131" y="-87.78" font-family="Times,serif" font-size="14.00">vector</text>
<text text-anchor="middle" x="131" y="-72.78" font-family="Times,serif" font-size="14.00">~</text>
<text text-anchor="middle" x="131" y="-57.78" font-family="Times,serif" font-size="14.00">Multivariate_normal</text>
</g>
<!-- matrix (implicit) -->
<g id="node2" class="node">
<title>matrix (implicit)</title>
<ellipse fill="none" stroke="black" cx="632" cy="-76.48" rx="114.6" ry="37.45"/>
<text text-anchor="middle" x="632" y="-87.78" font-family="Times,serif" font-size="14.00">matrix (implicit)</text>
<text text-anchor="middle" x="632" y="-72.78" font-family="Times,serif" font-size="14.00">~</text>
<text text-anchor="middle" x="632" y="-57.78" font-family="Times,serif" font-size="14.00">Multivariate_normal</text>
</g>
<!-- matrix (explicit) -->
<g id="node3" class="node">
<title>matrix (explicit)</title>
<ellipse fill="none" stroke="black" cx="385" cy="-76.48" rx="114.6" ry="37.45"/>
<text text-anchor="middle" x="385" y="-87.78" font-family="Times,serif" font-size="14.00">matrix (explicit)</text>
<text text-anchor="middle" x="385" y="-72.78" font-family="Times,serif" font-size="14.00">~</text>
<text text-anchor="middle" x="385" y="-57.78" font-family="Times,serif" font-size="14.00">Multivariate_normal</text>
</g>
</g>
</svg>
