<?xml version="1.0" encoding="UTF-8" standalone="no"?>
<!DOCTYPE svg PUBLIC "-//W3C//DTD SVG 1.1//EN"
 "http://www.w3.org/Graphics/SVG/1.1/DTD/svg11.dtd">
<!-- Generated by graphviz version 2.42.4 (0)
 -->
<!-- Pages: 1 -->
<svg width="618pt" height="138pt"
 viewBox="0.00 0.00 617.92 137.95" xmlns="http://www.w3.org/2000/svg" xmlns:xlink="http://www.w3.org/1999/xlink">
<g id="graph0" class="graph" transform="scale(1 1) rotate(0) translate(4 133.95)">
<polygon fill="white" stroke="transparent" points="-4,4 -4,-133.95 613.92,-133.95 613.92,4 -4,4"/>
<g id="clust1" class="cluster">
<title>cluster3</title>
<path fill="none" stroke="black" d="M205.92,-8C205.92,-8 383.92,-8 383.92,-8 389.92,-8 395.92,-14 395.92,-20 395.92,-20 395.92,-109.95 395.92,-109.95 395.92,-115.95 389.92,-121.95 383.92,-121.95 383.92,-121.95 205.92,-121.95 205.92,-121.95 199.92,-121.95 193.92,-115.95 193.92,-109.95 193.92,-109.95 193.92,-20 193.92,-20 193.92,-14 199.92,-8 205.92,-8"/>
<text text-anchor="middle" x="382.92" y="-15.8" font-family="Times,serif" font-size="14.00">3</text>
</g>
<g id="clust2" class="cluster">
<title>cluster4</title>
<path fill="none" stroke="black" d="M415.92,-8C415.92,-8 589.92,-8 589.92,-8 595.92,-8 601.92,-14 601.92,-20 601.92,-20 601.92,-109.95 601.92,-109.95 601.92,-115.95 595.92,-121.95 589.92,-121.95 589.92,-121.95 415.92,-121.95 415.92,-121.95 409.92,-121.95 403.92,-115.95 403.92,-109.95 403.92,-109.95 403.92,-20 403.92,-20 403.92,-14 409.92,-8 415.92,-8"/>
<text text-anchor="middle" x="588.92" y="-15.8" font-family="Times,serif" font-size="14.00">4</text>
</g>
<!-- scalar (support) -->
<g id="node1" class="node">
<title>scalar (support)</title>
<ellipse fill="none" stroke="black" cx="91.92" cy="-76.48" rx="91.85" ry="37.45"/>
<text text-anchor="middle" x="91.92" y="-87.78" font-family="Times,serif" font-size="14.00">scalar (support)</text>
<text text-anchor="middle" x="91.92" y="-72.78" font-family="Times,serif" font-size="14.00">~</text>
<text text-anchor="middle" x="91.92" y="-57.78" font-family="Times,serif" font-size="14.00">Normal</text>
</g>
<!-- vector (implicit) -->
<g id="node2" class="node">
<title>vector (implicit)</title>
<ellipse fill="none" stroke="black" cx="294.92" cy="-76.48" rx="92.76" ry="37.45"/>
<text text-anchor="middle" x="294.92" y="-87.78" font-family="Times,serif" font-size="14.00">vector (implicit)</text>
<text text-anchor="middle" x="294.92" y="-72.78" font-family="Times,serif" font-size="14.00">~</text>
<text text-anchor="middle" x="294.92" y="-57.78" font-family="Times,serif" font-size="14.00">Normal</text>
</g>
<!-- vector (explicit) -->
<g id="node3" class="node">
<title>vector (explicit)</title>
<ellipse fill="none" stroke="black" cx="502.92" cy="-76.48" rx="91.43" ry="37.45"/>
<text text-anchor="middle" x="502.92" y="-87.78" font-family="Times,serif" font-size="14.00">vector (explicit)</text>
<text text-anchor="middle" x="502.92" y="-72.78" font-family="Times,serif" font-size="14.00">~</text>
<text text-anchor="middle" x="502.92" y="-57.78" font-family="Times,serif" font-size="14.00">Normal</text>
</g>
</g>
</svg>
