<?xml version="1.0" encoding="UTF-8" standalone="no"?>
<!DOCTYPE svg PUBLIC "-//W3C//DTD SVG 1.1//EN"
 "http://www.w3.org/Graphics/SVG/1.1/DTD/svg11.dtd">
<!-- Generated by graphviz version 2.42.4 (0)
 -->
<!-- Pages: 1 -->
<svg width="971pt" height="482pt"
 viewBox="0.00 0.00 971.00 481.81" xmlns="http://www.w3.org/2000/svg" xmlns:xlink="http://www.w3.org/1999/xlink">
<g id="graph0" class="graph" transform="scale(1 1) rotate(0) translate(4 477.81)">
<polygon fill="white" stroke="transparent" points="-4,4 -4,-477.81 967,-477.81 967,4 -4,4"/>
<g id="clust1" class="cluster">
<title>clusterobs_idx (614) x covariate (7)</title>
<path fill="none" stroke="black" d="M20,-362.84C20,-362.84 215,-362.84 215,-362.84 221,-362.84 227,-368.84 227,-374.84 227,-374.84 227,-442.84 227,-442.84 227,-448.84 221,-454.84 215,-454.84 215,-454.84 20,-454.84 20,-454.84 14,-454.84 8,-448.84 8,-442.84 8,-442.84 8,-374.84 8,-374.84 8,-368.84 14,-362.84 20,-362.84"/>
<text text-anchor="middle" x="117.5" y="-370.64" font-family="Times,serif" font-size="14.00">obs_idx (614) x covariate (7)</text>
</g>
<g id="clust2" class="cluster">
<title>clustercovariate (7)</title>
<path fill="none" stroke="black" d="M434,-351.86C434,-351.86 943,-351.86 943,-351.86 949,-351.86 955,-357.86 955,-363.86 955,-363.86 955,-453.81 955,-453.81 955,-459.81 949,-465.81 943,-465.81 943,-465.81 434,-465.81 434,-465.81 428,-465.81 422,-459.81 422,-453.81 422,-453.81 422,-363.86 422,-363.86 422,-357.86 428,-351.86 434,-351.86"/>
<text text-anchor="middle" x="901.5" y="-359.66" font-family="Times,serif" font-size="14.00">covariate (7)</text>
</g>
<g id="clust3" class="cluster">
<title>clusterobs_idx (614)</title>
<path fill="none" stroke="black" d="M199,-8C199,-8 307,-8 307,-8 313,-8 319,-14 319,-20 319,-20 319,-331.86 319,-331.86 319,-337.86 313,-343.86 307,-343.86 307,-343.86 199,-343.86 199,-343.86 193,-343.86 187,-337.86 187,-331.86 187,-331.86 187,-20 187,-20 187,-14 193,-8 199,-8"/>
<text text-anchor="middle" x="263" y="-15.8" font-family="Times,serif" font-size="14.00">obs_idx (614)</text>
</g>
<!-- covariates_data -->
<g id="node1" class="node">
<title>covariates_data</title>
<path fill="lightgrey" stroke="black" d="M206,-446.84C206,-446.84 102,-446.84 102,-446.84 96,-446.84 90,-440.84 90,-434.84 90,-434.84 90,-405.84 90,-405.84 90,-399.84 96,-393.84 102,-393.84 102,-393.84 206,-393.84 206,-393.84 212,-393.84 218,-399.84 218,-405.84 218,-405.84 218,-434.84 218,-434.84 218,-440.84 212,-446.84 206,-446.84"/>
<text text-anchor="middle" x="154" y="-431.64" font-family="Times,serif" font-size="14.00">covariates_data</text>
<text text-anchor="middle" x="154" y="-416.64" font-family="Times,serif" font-size="14.00">~</text>
<text text-anchor="middle" x="154" y="-401.64" font-family="Times,serif" font-size="14.00">Data</text>
</g>
<!-- treat -->
<g id="node8" class="node">
<title>treat</title>
<ellipse fill="none" stroke="black" cx="253" cy="-298.38" rx="57.97" ry="37.45"/>
<text text-anchor="middle" x="253" y="-309.68" font-family="Times,serif" font-size="14.00">treat</text>
<text text-anchor="middle" x="253" y="-294.68" font-family="Times,serif" font-size="14.00">~</text>
<text text-anchor="middle" x="253" y="-279.68" font-family="Times,serif" font-size="14.00">Bernoulli</text>
</g>
<!-- covariates_data&#45;&gt;treat -->
<g id="edge3" class="edge">
<title>covariates_data&#45;&gt;treat</title>
<path fill="none" stroke="black" d="M175.24,-393.6C188.15,-377.96 204.91,-357.65 219.57,-339.89"/>
<polygon fill="black" stroke="black" points="222.47,-341.88 226.13,-331.94 217.07,-337.42 222.47,-341.88"/>
</g>
<!-- mu_earnings -->
<g id="node10" class="node">
<title>mu_earnings</title>
<polygon fill="none" stroke="black" points="311,-213.93 197,-213.93 197,-160.93 311,-160.93 311,-213.93"/>
<text text-anchor="middle" x="254" y="-198.73" font-family="Times,serif" font-size="14.00">mu_earnings</text>
<text text-anchor="middle" x="254" y="-183.73" font-family="Times,serif" font-size="14.00">~</text>
<text text-anchor="middle" x="254" y="-168.73" font-family="Times,serif" font-size="14.00">Deterministic</text>
</g>
<!-- covariates_data&#45;&gt;mu_earnings -->
<g id="edge6" class="edge">
<title>covariates_data&#45;&gt;mu_earnings</title>
<path fill="none" stroke="black" d="M154.89,-393.78C156.95,-361.23 163.74,-304.05 186,-260.91 193.46,-246.44 204.66,-232.8 215.83,-221.33"/>
<polygon fill="black" stroke="black" points="218.47,-223.64 223.12,-214.12 213.55,-218.66 218.47,-223.64"/>
</g>
<!-- intercept_treat -->
<g id="node2" class="node">
<title>intercept_treat</title>
<ellipse fill="none" stroke="black" cx="324" cy="-420.34" rx="87.86" ry="37.45"/>
<text text-anchor="middle" x="324" y="-431.64" font-family="Times,serif" font-size="14.00">intercept_treat</text>
<text text-anchor="middle" x="324" y="-416.64" font-family="Times,serif" font-size="14.00">~</text>
<text text-anchor="middle" x="324" y="-401.64" font-family="Times,serif" font-size="14.00">Normal</text>
</g>
<!-- intercept_treat&#45;&gt;treat -->
<g id="edge1" class="edge">
<title>intercept_treat&#45;&gt;treat</title>
<path fill="none" stroke="black" d="M302.89,-383.67C295.24,-370.75 286.53,-356.03 278.54,-342.54"/>
<polygon fill="black" stroke="black" points="281.52,-340.7 273.42,-333.88 275.5,-344.27 281.52,-340.7"/>
</g>
<!-- sigma_earnings -->
<g id="node3" class="node">
<title>sigma_earnings</title>
<ellipse fill="none" stroke="black" cx="420" cy="-187.43" rx="90.52" ry="37.45"/>
<text text-anchor="middle" x="420" y="-198.73" font-family="Times,serif" font-size="14.00">sigma_earnings</text>
<text text-anchor="middle" x="420" y="-183.73" font-family="Times,serif" font-size="14.00">~</text>
<text text-anchor="middle" x="420" y="-168.73" font-family="Times,serif" font-size="14.00">Halfnormal</text>
</g>
<!-- earnings -->
<g id="node9" class="node">
<title>earnings</title>
<ellipse fill="none" stroke="black" cx="254" cy="-76.48" rx="55.72" ry="37.45"/>
<text text-anchor="middle" x="254" y="-87.78" font-family="Times,serif" font-size="14.00">earnings</text>
<text text-anchor="middle" x="254" y="-72.78" font-family="Times,serif" font-size="14.00">~</text>
<text text-anchor="middle" x="254" y="-57.78" font-family="Times,serif" font-size="14.00">Normal</text>
</g>
<!-- sigma_earnings&#45;&gt;earnings -->
<g id="edge10" class="edge">
<title>sigma_earnings&#45;&gt;earnings</title>
<path fill="none" stroke="black" d="M372.43,-155.21C350.27,-140.66 323.96,-123.4 301.78,-108.84"/>
<polygon fill="black" stroke="black" points="303.46,-105.75 293.18,-103.19 299.62,-111.61 303.46,-105.75"/>
</g>
<!-- intercept_earnings -->
<g id="node4" class="node">
<title>intercept_earnings</title>
<ellipse fill="none" stroke="black" cx="436" cy="-298.38" rx="106.55" ry="37.45"/>
<text text-anchor="middle" x="436" y="-309.68" font-family="Times,serif" font-size="14.00">intercept_earnings</text>
<text text-anchor="middle" x="436" y="-294.68" font-family="Times,serif" font-size="14.00">~</text>
<text text-anchor="middle" x="436" y="-279.68" font-family="Times,serif" font-size="14.00">Normal</text>
</g>
<!-- intercept_earnings&#45;&gt;mu_earnings -->
<g id="edge7" class="edge">
<title>intercept_earnings&#45;&gt;mu_earnings</title>
<path fill="none" stroke="black" d="M382.87,-265.58C358.48,-250.98 329.67,-233.73 305.49,-219.25"/>
<polygon fill="black" stroke="black" points="307.18,-216.19 296.8,-214.05 303.59,-222.19 307.18,-216.19"/>
</g>
<!-- beta_treat_earnings -->
<g id="node5" class="node">
<title>beta_treat_earnings</title>
<ellipse fill="none" stroke="black" cx="673" cy="-298.38" rx="112.36" ry="37.45"/>
<text text-anchor="middle" x="673" y="-309.68" font-family="Times,serif" font-size="14.00">beta_treat_earnings</text>
<text text-anchor="middle" x="673" y="-294.68" font-family="Times,serif" font-size="14.00">~</text>
<text text-anchor="middle" x="673" y="-279.68" font-family="Times,serif" font-size="14.00">Normal</text>
</g>
<!-- beta_treat_earnings&#45;&gt;mu_earnings -->
<g id="edge8" class="edge">
<title>beta_treat_earnings&#45;&gt;mu_earnings</title>
<path fill="none" stroke="black" d="M593.69,-271.76C579.88,-267.79 565.59,-263.99 552,-260.91 450.25,-237.79 418.73,-258.66 320,-224.91 314.81,-223.13 309.56,-220.96 304.39,-218.58"/>
<polygon fill="black" stroke="black" points="305.75,-215.34 295.23,-214.08 302.67,-221.63 305.75,-215.34"/>
</g>
<!-- beta_covariate_earnings -->
<g id="node6" class="node">
<title>beta_covariate_earnings</title>
<ellipse fill="none" stroke="black" cx="813" cy="-420.34" rx="134.2" ry="37.45"/>
<text text-anchor="middle" x="813" y="-431.64" font-family="Times,serif" font-size="14.00">beta_covariate_earnings</text>
<text text-anchor="middle" x="813" y="-416.64" font-family="Times,serif" font-size="14.00">~</text>
<text text-anchor="middle" x="813" y="-401.64" font-family="Times,serif" font-size="14.00">Normal</text>
</g>
<!-- beta_covariate_earnings&#45;&gt;mu_earnings -->
<g id="edge4" class="edge">
<title>beta_covariate_earnings&#45;&gt;mu_earnings</title>
<path fill="none" stroke="black" d="M820.4,-382.82C825.43,-346.46 826.22,-291.75 794,-260.91 717.69,-187.85 421.22,-255.15 320,-224.91 314.37,-223.23 308.7,-221.01 303.15,-218.51"/>
<polygon fill="black" stroke="black" points="304.51,-215.28 293.99,-214.06 301.46,-221.58 304.51,-215.28"/>
</g>
<!-- beta_covariate_treat -->
<g id="node7" class="node">
<title>beta_covariate_treat</title>
<ellipse fill="none" stroke="black" cx="545" cy="-420.34" rx="115.02" ry="37.45"/>
<text text-anchor="middle" x="545" y="-431.64" font-family="Times,serif" font-size="14.00">beta_covariate_treat</text>
<text text-anchor="middle" x="545" y="-416.64" font-family="Times,serif" font-size="14.00">~</text>
<text text-anchor="middle" x="545" y="-401.64" font-family="Times,serif" font-size="14.00">Normal</text>
</g>
<!-- beta_covariate_treat&#45;&gt;treat -->
<g id="edge2" class="edge">
<title>beta_covariate_treat&#45;&gt;treat</title>
<path fill="none" stroke="black" d="M495.82,-386.37C473.85,-373.32 447.08,-359.61 421,-351.86 377.83,-339.04 362.56,-358.56 320,-343.86 312.39,-341.23 304.81,-337.53 297.63,-333.38"/>
<polygon fill="black" stroke="black" points="299.13,-330.19 288.78,-327.91 295.45,-336.14 299.13,-330.19"/>
</g>
<!-- treat&#45;&gt;mu_earnings -->
<g id="edge5" class="edge">
<title>treat&#45;&gt;mu_earnings</title>
<path fill="none" stroke="black" d="M253.34,-260.8C253.44,-249.06 253.56,-236.08 253.67,-224.38"/>
<polygon fill="black" stroke="black" points="257.17,-224.11 253.76,-214.08 250.17,-224.05 257.17,-224.11"/>
</g>
<!-- mu_earnings&#45;&gt;earnings -->
<g id="edge9" class="edge">
<title>mu_earnings&#45;&gt;earnings</title>
<path fill="none" stroke="black" d="M254,-160.89C254,-149.98 254,-136.89 254,-124.35"/>
<polygon fill="black" stroke="black" points="257.5,-124 254,-114 250.5,-124 257.5,-124"/>
</g>
</g>
</svg>
