<?xml version="1.0" encoding="UTF-8" standalone="no"?>
<!DOCTYPE svg PUBLIC "-//W3C//DTD SVG 1.1//EN"
 "http://www.w3.org/Graphics/SVG/1.1/DTD/svg11.dtd">
<!-- Generated by graphviz version 2.42.4 (0)
 -->
<!-- Pages: 1 -->
<svg width="1574pt" height="363pt"
 viewBox="0.00 0.00 1573.68 362.86" xmlns="http://www.w3.org/2000/svg" xmlns:xlink="http://www.w3.org/1999/xlink">
<g id="graph0" class="graph" transform="scale(1 1) rotate(0) translate(4 358.86)">
<polygon fill="white" stroke="transparent" points="-4,4 -4,-358.86 1569.68,-358.86 1569.68,4 -4,4"/>
<g id="clust1" class="cluster">
<title>clusterobs_idx (614) x covariate (7)</title>
<path fill="none" stroke="black" d="M20,-243.88C20,-243.88 215,-243.88 215,-243.88 221,-243.88 227,-249.88 227,-255.88 227,-255.88 227,-323.88 227,-323.88 227,-329.88 221,-335.88 215,-335.88 215,-335.88 20,-335.88 20,-335.88 14,-335.88 8,-329.88 8,-323.88 8,-323.88 8,-255.88 8,-255.88 8,-249.88 14,-243.88 20,-243.88"/>
<text text-anchor="middle" x="117.5" y="-251.68" font-family="Times,serif" font-size="14.00">obs_idx (614) x covariate (7)</text>
</g>
<g id="clust2" class="cluster">
<title>clustercovariate (7)</title>
<path fill="none" stroke="black" d="M385,-232.91C385,-232.91 894,-232.91 894,-232.91 900,-232.91 906,-238.91 906,-244.91 906,-244.91 906,-334.86 906,-334.86 906,-340.86 900,-346.86 894,-346.86 894,-346.86 385,-346.86 385,-346.86 379,-346.86 373,-340.86 373,-334.86 373,-334.86 373,-244.91 373,-244.91 373,-238.91 379,-232.91 385,-232.91"/>
<text text-anchor="middle" x="852.5" y="-240.71" font-family="Times,serif" font-size="14.00">covariate (7)</text>
</g>
<g id="clust3" class="cluster">
<title>clusterobs_idx (614)</title>
<path fill="none" stroke="black" d="M247,-8C247,-8 353,-8 353,-8 359,-8 365,-14 365,-20 365,-20 365,-323.88 365,-323.88 365,-329.88 359,-335.88 353,-335.88 353,-335.88 247,-335.88 247,-335.88 241,-335.88 235,-329.88 235,-323.88 235,-323.88 235,-20 235,-20 235,-14 241,-8 247,-8"/>
<text text-anchor="middle" x="309" y="-15.8" font-family="Times,serif" font-size="14.00">obs_idx (614)</text>
</g>
<!-- covariates_data -->
<g id="node1" class="node">
<title>covariates_data</title>
<path fill="lightgrey" stroke="black" d="M207,-327.88C207,-327.88 103,-327.88 103,-327.88 97,-327.88 91,-321.88 91,-315.88 91,-315.88 91,-286.88 91,-286.88 91,-280.88 97,-274.88 103,-274.88 103,-274.88 207,-274.88 207,-274.88 213,-274.88 219,-280.88 219,-286.88 219,-286.88 219,-315.88 219,-315.88 219,-321.88 213,-327.88 207,-327.88"/>
<text text-anchor="middle" x="155" y="-312.68" font-family="Times,serif" font-size="14.00">covariates_data</text>
<text text-anchor="middle" x="155" y="-297.68" font-family="Times,serif" font-size="14.00">~</text>
<text text-anchor="middle" x="155" y="-282.68" font-family="Times,serif" font-size="14.00">Data</text>
</g>
<!-- mu_earnings -->
<g id="node6" class="node">
<title>mu_earnings</title>
<polygon fill="none" stroke="black" points="357,-213.93 243,-213.93 243,-160.93 357,-160.93 357,-213.93"/>
<text text-anchor="middle" x="300" y="-198.73" font-family="Times,serif" font-size="14.00">mu_earnings</text>
<text text-anchor="middle" x="300" y="-183.73" font-family="Times,serif" font-size="14.00">~</text>
<text text-anchor="middle" x="300" y="-168.73" font-family="Times,serif" font-size="14.00">Deterministic</text>
</g>
<!-- covariates_data&#45;&gt;mu_earnings -->
<g id="edge3" class="edge">
<title>covariates_data&#45;&gt;mu_earnings</title>
<path fill="none" stroke="black" d="M181.93,-274.65C196.09,-261.6 213.99,-245.82 231,-232.91 236.85,-228.46 243.15,-224.01 249.47,-219.72"/>
<polygon fill="black" stroke="black" points="251.68,-222.45 258.06,-214 247.8,-216.63 251.68,-222.45"/>
</g>
<!-- beta_covariate_earnings -->
<g id="node2" class="node">
<title>beta_covariate_earnings</title>
<ellipse fill="none" stroke="black" cx="764" cy="-301.38" rx="134.2" ry="37.45"/>
<text text-anchor="middle" x="764" y="-312.68" font-family="Times,serif" font-size="14.00">beta_covariate_earnings</text>
<text text-anchor="middle" x="764" y="-297.68" font-family="Times,serif" font-size="14.00">~</text>
<text text-anchor="middle" x="764" y="-282.68" font-family="Times,serif" font-size="14.00">Normal</text>
</g>
<!-- beta_covariate_earnings&#45;&gt;mu_earnings -->
<g id="edge1" class="edge">
<title>beta_covariate_earnings&#45;&gt;mu_earnings</title>
<path fill="none" stroke="black" d="M707.46,-267.36C681.67,-254.04 650.21,-240.13 620,-232.91 565.08,-219.77 420.45,-239.87 366,-224.91 360.04,-223.27 354.02,-220.99 348.19,-218.37"/>
<polygon fill="black" stroke="black" points="349.71,-215.22 339.19,-214 346.66,-221.52 349.71,-215.22"/>
</g>
<!-- beta_covariate_treat -->
<g id="node3" class="node">
<title>beta_covariate_treat</title>
<ellipse fill="none" stroke="black" cx="496" cy="-301.38" rx="115.02" ry="37.45"/>
<text text-anchor="middle" x="496" y="-312.68" font-family="Times,serif" font-size="14.00">beta_covariate_treat</text>
<text text-anchor="middle" x="496" y="-297.68" font-family="Times,serif" font-size="14.00">~</text>
<text text-anchor="middle" x="496" y="-282.68" font-family="Times,serif" font-size="14.00">Normal</text>
</g>
<!-- treat -->
<g id="node4" class="node">
<title>treat</title>
<path fill="lightgrey" stroke="black" d="M315,-327.88C315,-327.88 285,-327.88 285,-327.88 279,-327.88 273,-321.88 273,-315.88 273,-315.88 273,-286.88 273,-286.88 273,-280.88 279,-274.88 285,-274.88 285,-274.88 315,-274.88 315,-274.88 321,-274.88 327,-280.88 327,-286.88 327,-286.88 327,-315.88 327,-315.88 327,-321.88 321,-327.88 315,-327.88"/>
<text text-anchor="middle" x="300" y="-312.68" font-family="Times,serif" font-size="14.00">treat</text>
<text text-anchor="middle" x="300" y="-297.68" font-family="Times,serif" font-size="14.00">~</text>
<text text-anchor="middle" x="300" y="-282.68" font-family="Times,serif" font-size="14.00">Data</text>
</g>
<!-- treat&#45;&gt;mu_earnings -->
<g id="edge2" class="edge">
<title>treat&#45;&gt;mu_earnings</title>
<path fill="none" stroke="black" d="M300,-274.7C300,-259.77 300,-240.72 300,-224.32"/>
<polygon fill="black" stroke="black" points="303.5,-223.99 300,-213.99 296.5,-223.99 303.5,-223.99"/>
</g>
<!-- earnings -->
<g id="node5" class="node">
<title>earnings</title>
<ellipse fill="lightgrey" stroke="black" cx="300" cy="-76.48" rx="55.72" ry="37.45"/>
<text text-anchor="middle" x="300" y="-87.78" font-family="Times,serif" font-size="14.00">earnings</text>
<text text-anchor="middle" x="300" y="-72.78" font-family="Times,serif" font-size="14.00">~</text>
<text text-anchor="middle" x="300" y="-57.78" font-family="Times,serif" font-size="14.00">Normal</text>
</g>
<!-- mu_earnings&#45;&gt;earnings -->
<g id="edge6" class="edge">
<title>mu_earnings&#45;&gt;earnings</title>
<path fill="none" stroke="black" d="M300,-160.89C300,-149.98 300,-136.89 300,-124.35"/>
<polygon fill="black" stroke="black" points="303.5,-124 300,-114 296.5,-124 303.5,-124"/>
</g>
<!-- intercept_treat -->
<g id="node7" class="node">
<title>intercept_treat</title>
<ellipse fill="none" stroke="black" cx="1478" cy="-301.38" rx="87.86" ry="37.45"/>
<text text-anchor="middle" x="1478" y="-312.68" font-family="Times,serif" font-size="14.00">intercept_treat</text>
<text text-anchor="middle" x="1478" y="-297.68" font-family="Times,serif" font-size="14.00">~</text>
<text text-anchor="middle" x="1478" y="-282.68" font-family="Times,serif" font-size="14.00">Normal</text>
</g>
<!-- sigma_earnings -->
<g id="node8" class="node">
<title>sigma_earnings</title>
<ellipse fill="none" stroke="black" cx="466" cy="-187.43" rx="90.52" ry="37.45"/>
<text text-anchor="middle" x="466" y="-198.73" font-family="Times,serif" font-size="14.00">sigma_earnings</text>
<text text-anchor="middle" x="466" y="-183.73" font-family="Times,serif" font-size="14.00">~</text>
<text text-anchor="middle" x="466" y="-168.73" font-family="Times,serif" font-size="14.00">Halfnormal</text>
</g>
<!-- sigma_earnings&#45;&gt;earnings -->
<g id="edge7" class="edge">
<title>sigma_earnings&#45;&gt;earnings</title>
<path fill="none" stroke="black" d="M418.43,-155.21C396.27,-140.66 369.96,-123.4 347.78,-108.84"/>
<polygon fill="black" stroke="black" points="349.46,-105.75 339.18,-103.19 345.62,-111.61 349.46,-105.75"/>
</g>
<!-- intercept_earnings -->
<g id="node9" class="node">
<title>intercept_earnings</title>
<ellipse fill="none" stroke="black" cx="1023" cy="-301.38" rx="106.55" ry="37.45"/>
<text text-anchor="middle" x="1023" y="-312.68" font-family="Times,serif" font-size="14.00">intercept_earnings</text>
<text text-anchor="middle" x="1023" y="-297.68" font-family="Times,serif" font-size="14.00">~</text>
<text text-anchor="middle" x="1023" y="-282.68" font-family="Times,serif" font-size="14.00">Normal</text>
</g>
<!-- intercept_earnings&#45;&gt;mu_earnings -->
<g id="edge4" class="edge">
<title>intercept_earnings&#45;&gt;mu_earnings</title>
<path fill="none" stroke="black" d="M979.33,-266.98C959.33,-253.68 934.62,-239.89 910,-232.91 851.85,-216.4 424.42,-240.44 366,-224.91 359.94,-223.3 353.83,-221.01 347.92,-218.36"/>
<polygon fill="black" stroke="black" points="349.33,-215.15 338.8,-213.94 346.27,-221.45 349.33,-215.15"/>
</g>
<!-- beta_treat_earnings -->
<g id="node10" class="node">
<title>beta_treat_earnings</title>
<ellipse fill="none" stroke="black" cx="1260" cy="-301.38" rx="112.36" ry="37.45"/>
<text text-anchor="middle" x="1260" y="-312.68" font-family="Times,serif" font-size="14.00">beta_treat_earnings</text>
<text text-anchor="middle" x="1260" y="-297.68" font-family="Times,serif" font-size="14.00">~</text>
<text text-anchor="middle" x="1260" y="-282.68" font-family="Times,serif" font-size="14.00">Normal</text>
</g>
<!-- beta_treat_earnings&#45;&gt;mu_earnings -->
<g id="edge5" class="edge">
<title>beta_treat_earnings&#45;&gt;mu_earnings</title>
<path fill="none" stroke="black" d="M1213.22,-267.09C1191.69,-253.72 1165.15,-239.85 1139,-232.91 1055.98,-210.86 449.06,-246.79 366,-224.91 359.94,-223.31 353.83,-221.03 347.91,-218.39"/>
<polygon fill="black" stroke="black" points="349.32,-215.18 338.79,-213.97 346.27,-221.48 349.32,-215.18"/>
</g>
</g>
</svg>
