<?xml version="1.0" encoding="UTF-8" standalone="no"?>
<!DOCTYPE svg PUBLIC "-//W3C//DTD SVG 1.1//EN"
 "http://www.w3.org/Graphics/SVG/1.1/DTD/svg11.dtd">
<!-- Generated by graphviz version 2.42.4 (0)
 -->
<!-- Pages: 1 -->
<svg width="720pt" height="188pt"
 viewBox="0.00 0.00 719.84 188.00" xmlns="http://www.w3.org/2000/svg" xmlns:xlink="http://www.w3.org/1999/xlink">
<g id="graph0" class="graph" transform="scale(1 1) rotate(0) translate(4 184)">
<polygon fill="white" stroke="transparent" points="-4,4 -4,-184 715.84,-184 715.84,4 -4,4"/>
<!-- treat -->
<g id="node1" class="node">
<title>treat</title>
<ellipse fill="#2a2eec" fill-opacity="0.501961" stroke="#2a2eec" stroke-opacity="0.501961" cx="311.9" cy="-90" rx="33.6" ry="18"/>
<text text-anchor="middle" x="311.9" y="-86.3" font-family="Times,serif" font-size="14.00">treat</text>
</g>
<!-- re78 -->
<g id="node2" class="node">
<title>re78</title>
<ellipse fill="#fa7c17" fill-opacity="0.501961" stroke="#fa7c17" stroke-opacity="0.501961" cx="342.9" cy="-18" rx="32.49" ry="18"/>
<text text-anchor="middle" x="342.9" y="-14.3" font-family="Times,serif" font-size="14.00">re78</text>
</g>
<!-- treat&#45;&gt;re78 -->
<g id="edge1" class="edge">
<title>treat&#45;&gt;re78</title>
<path fill="none" stroke="black" d="M319.24,-72.41C322.82,-64.34 327.2,-54.43 331.22,-45.35"/>
<polygon fill="black" stroke="black" points="334.54,-46.52 335.39,-35.96 328.14,-43.68 334.54,-46.52"/>
</g>
<!-- education -->
<g id="node3" class="node">
<title>education</title>
<ellipse fill="none" stroke="black" cx="55.9" cy="-162" rx="55.79" ry="18"/>
<text text-anchor="middle" x="55.9" y="-158.3" font-family="Times,serif" font-size="14.00">education</text>
</g>
<!-- education&#45;&gt;treat -->
<g id="edge2" class="edge">
<title>education&#45;&gt;treat</title>
<path fill="none" stroke="black" d="M97.03,-149.75C145.35,-136.54 224.96,-114.77 272.51,-101.77"/>
<polygon fill="black" stroke="black" points="273.71,-105.07 282.44,-99.05 271.87,-98.32 273.71,-105.07"/>
</g>
<!-- education&#45;&gt;re78 -->
<g id="edge3" class="edge">
<title>education&#45;&gt;re78</title>
<path fill="none" stroke="black" d="M78.76,-145.5C107.25,-126.61 157.79,-94.43 203.9,-72 237.45,-55.68 277.4,-40.9 305.84,-31.12"/>
<polygon fill="black" stroke="black" points="307.05,-34.4 315.39,-27.87 304.79,-27.78 307.05,-34.4"/>
</g>
<!-- age -->
<g id="node4" class="node">
<title>age</title>
<ellipse fill="none" stroke="black" cx="156.9" cy="-162" rx="27.1" ry="18"/>
<text text-anchor="middle" x="156.9" y="-158.3" font-family="Times,serif" font-size="14.00">age</text>
</g>
<!-- age&#45;&gt;treat -->
<g id="edge4" class="edge">
<title>age&#45;&gt;treat</title>
<path fill="none" stroke="black" d="M178.79,-150.9C183.76,-148.62 189,-146.22 193.9,-144 221.93,-131.26 253.78,-116.97 277.32,-106.44"/>
<polygon fill="black" stroke="black" points="278.85,-109.59 286.55,-102.31 275.99,-103.2 278.85,-109.59"/>
</g>
<!-- age&#45;&gt;re78 -->
<g id="edge5" class="edge">
<title>age&#45;&gt;re78</title>
<path fill="none" stroke="black" d="M169.83,-145.85C186.4,-127.03 216.63,-94.64 246.9,-72 266.33,-57.47 290.21,-44.27 309.29,-34.67"/>
<polygon fill="black" stroke="black" points="311.08,-37.69 318.51,-30.13 307.99,-31.41 311.08,-37.69"/>
</g>
<!-- re75 -->
<g id="node5" class="node">
<title>re75</title>
<ellipse fill="none" stroke="black" cx="234.9" cy="-162" rx="32.49" ry="18"/>
<text text-anchor="middle" x="234.9" y="-158.3" font-family="Times,serif" font-size="14.00">re75</text>
</g>
<!-- re75&#45;&gt;treat -->
<g id="edge6" class="edge">
<title>re75&#45;&gt;treat</title>
<path fill="none" stroke="black" d="M251.22,-146.15C261.94,-136.41 276.14,-123.5 288.11,-112.63"/>
<polygon fill="black" stroke="black" points="290.54,-115.14 295.59,-105.82 285.84,-109.96 290.54,-115.14"/>
</g>
<!-- re75&#45;&gt;re78 -->
<g id="edge7" class="edge">
<title>re75&#45;&gt;re78</title>
<path fill="none" stroke="black" d="M238.33,-143.8C242.81,-124.71 252.12,-93.74 268.9,-72 280.17,-57.39 296.55,-45.08 311.04,-36.01"/>
<polygon fill="black" stroke="black" points="312.97,-38.94 319.75,-30.8 309.37,-32.93 312.97,-38.94"/>
</g>
<!-- black -->
<g id="node6" class="node">
<title>black</title>
<ellipse fill="none" stroke="black" cx="320.9" cy="-162" rx="35.19" ry="18"/>
<text text-anchor="middle" x="320.9" y="-158.3" font-family="Times,serif" font-size="14.00">black</text>
</g>
<!-- black&#45;&gt;treat -->
<g id="edge8" class="edge">
<title>black&#45;&gt;treat</title>
<path fill="none" stroke="black" d="M318.67,-143.7C317.68,-135.98 316.49,-126.71 315.38,-118.11"/>
<polygon fill="black" stroke="black" points="318.84,-117.58 314.09,-108.1 311.9,-118.47 318.84,-117.58"/>
</g>
<!-- black&#45;&gt;re78 -->
<g id="edge9" class="edge">
<title>black&#45;&gt;re78</title>
<path fill="none" stroke="black" d="M334.59,-145.03C342.19,-135.09 350.9,-121.64 354.9,-108 360.91,-87.49 357.04,-63.42 352.15,-45.49"/>
<polygon fill="black" stroke="black" points="355.44,-44.29 349.22,-35.71 348.74,-46.3 355.44,-44.29"/>
</g>
<!-- hispanic -->
<g id="node7" class="node">
<title>hispanic</title>
<ellipse fill="none" stroke="black" cx="422.9" cy="-162" rx="49.29" ry="18"/>
<text text-anchor="middle" x="422.9" y="-158.3" font-family="Times,serif" font-size="14.00">hispanic</text>
</g>
<!-- hispanic&#45;&gt;treat -->
<g id="edge10" class="edge">
<title>hispanic&#45;&gt;treat</title>
<path fill="none" stroke="black" d="M399.35,-146.15C382.4,-135.46 359.41,-120.97 341.26,-109.52"/>
<polygon fill="black" stroke="black" points="343.11,-106.55 332.78,-104.17 339.37,-112.47 343.11,-106.55"/>
</g>
<!-- hispanic&#45;&gt;re78 -->
<g id="edge11" class="edge">
<title>hispanic&#45;&gt;re78</title>
<path fill="none" stroke="black" d="M413.4,-144.15C399.5,-119.47 373.47,-73.28 357.23,-44.44"/>
<polygon fill="black" stroke="black" points="360.08,-42.38 352.13,-35.39 353.99,-45.82 360.08,-42.38"/>
</g>
<!-- married -->
<g id="node8" class="node">
<title>married</title>
<ellipse fill="none" stroke="black" cx="537.9" cy="-162" rx="48.19" ry="18"/>
<text text-anchor="middle" x="537.9" y="-158.3" font-family="Times,serif" font-size="14.00">married</text>
</g>
<!-- married&#45;&gt;treat -->
<g id="edge12" class="edge">
<title>married&#45;&gt;treat</title>
<path fill="none" stroke="black" d="M502.08,-149.91C460.6,-137.06 392.54,-115.98 350.07,-102.83"/>
<polygon fill="black" stroke="black" points="350.97,-99.44 340.38,-99.82 348.9,-106.13 350.97,-99.44"/>
</g>
<!-- married&#45;&gt;re78 -->
<g id="edge13" class="edge">
<title>married&#45;&gt;re78</title>
<path fill="none" stroke="black" d="M516.66,-145.53C481.05,-119.6 409.37,-67.4 370.11,-38.82"/>
<polygon fill="black" stroke="black" points="371.94,-35.82 361.79,-32.76 367.82,-41.48 371.94,-35.82"/>
</g>
<!-- nodegree -->
<g id="node9" class="node">
<title>nodegree</title>
<ellipse fill="none" stroke="black" cx="657.9" cy="-162" rx="53.89" ry="18"/>
<text text-anchor="middle" x="657.9" y="-158.3" font-family="Times,serif" font-size="14.00">nodegree</text>
</g>
<!-- nodegree&#45;&gt;treat -->
<g id="edge14" class="edge">
<title>nodegree&#45;&gt;treat</title>
<path fill="none" stroke="black" d="M618.02,-149.73C610.37,-147.72 602.41,-145.71 594.9,-144 509.97,-124.62 409.52,-107.07 354.04,-97.83"/>
<polygon fill="black" stroke="black" points="354.33,-94.33 343.89,-96.15 353.19,-101.24 354.33,-94.33"/>
</g>
<!-- nodegree&#45;&gt;re78 -->
<g id="edge15" class="edge">
<title>nodegree&#45;&gt;re78</title>
<path fill="none" stroke="black" d="M627.12,-147.13C567.9,-120.43 438.51,-62.1 376.86,-34.31"/>
<polygon fill="black" stroke="black" points="378.13,-31.04 367.57,-30.12 375.25,-37.42 378.13,-31.04"/>
</g>
</g>
</svg>
