<?xml version="1.0" encoding="UTF-8" standalone="no"?>
<!DOCTYPE svg PUBLIC "-//W3C//DTD SVG 1.1//EN"
 "http://www.w3.org/Graphics/SVG/1.1/DTD/svg11.dtd">
<!-- Generated by graphviz version 2.42.4 (0)
 -->
<!-- Pages: 1 -->
<svg width="971pt" height="482pt"
 viewBox="0.00 0.00 971.00 481.81" xmlns="http://www.w3.org/2000/svg" xmlns:xlink="http://www.w3.org/1999/xlink">
<g id="graph0" class="graph" transform="scale(1 1) rotate(0) translate(4 477.81)">
<polygon fill="white" stroke="transparent" points="-4,4 -4,-477.81 967,-477.81 967,4 -4,4"/>
<g id="clust1" class="cluster">
<title>clusterobs_idx (614) x covariate (7)</title>
<path fill="none" stroke="black" d="M20,-362.84C20,-362.84 215,-362.84 215,-362.84 221,-362.84 227,-368.84 227,-374.84 227,-374.84 227,-442.84 227,-442.84 227,-448.84 221,-454.84 215,-454.84 215,-454.84 20,-454.84 20,-454.84 14,-454.84 8,-448.84 8,-442.84 8,-442.84 8,-374.84 8,-374.84 8,-368.84 14,-362.84 20,-362.84"/>
<text text-anchor="middle" x="117.5" y="-370.64" font-family="Times,serif" font-size="14.00">obs_idx (614) x covariate (7)</text>
</g>
<g id="clust2" class="cluster">
<title>clustercovariate (7)</title>
<path fill="none" stroke="black" d="M434,-351.86C434,-351.86 943,-351.86 943,-351.86 949,-351.86 955,-357.86 955,-363.86 955,-363.86 955,-453.81 955,-453.81 955,-459.81 949,-465.81 943,-465.81 943,-465.81 434,-465.81 434,-465.81 428,-465.81 422,-459.81 422,-453.81 422,-453.81 422,-363.86 422,-363.86 422,-357.86 428,-351.86 434,-351.86"/>
<text text-anchor="middle" x="901.5" y="-359.66" font-family="Times,serif" font-size="14.00">covariate (7)</text>
</g>
<g id="clust3" class="cluster">
<title>clusterobs_idx (614)</title>
<path fill="none" stroke="black" d="M270,-8C270,-8 378,-8 378,-8 384,-8 390,-14 390,-20 390,-20 390,-331.86 390,-331.86 390,-337.86 384,-343.86 378,-343.86 378,-343.86 270,-343.86 270,-343.86 264,-343.86 258,-337.86 258,-331.86 258,-331.86 258,-20 258,-20 258,-14 264,-8 270,-8"/>
<text text-anchor="middle" x="334" y="-15.8" font-family="Times,serif" font-size="14.00">obs_idx (614)</text>
</g>
<!-- covariates_data -->
<g id="node1" class="node">
<title>covariates_data</title>
<path fill="lightgrey" stroke="black" d="M206,-446.84C206,-446.84 102,-446.84 102,-446.84 96,-446.84 90,-440.84 90,-434.84 90,-434.84 90,-405.84 90,-405.84 90,-399.84 96,-393.84 102,-393.84 102,-393.84 206,-393.84 206,-393.84 212,-393.84 218,-399.84 218,-405.84 218,-405.84 218,-434.84 218,-434.84 218,-440.84 212,-446.84 206,-446.84"/>
<text text-anchor="middle" x="154" y="-431.64" font-family="Times,serif" font-size="14.00">covariates_data</text>
<text text-anchor="middle" x="154" y="-416.64" font-family="Times,serif" font-size="14.00">~</text>
<text text-anchor="middle" x="154" y="-401.64" font-family="Times,serif" font-size="14.00">Data</text>
</g>
<!-- treat -->
<g id="node8" class="node">
<title>treat</title>
<ellipse fill="lightgrey" stroke="black" cx="324" cy="-298.38" rx="57.97" ry="37.45"/>
<text text-anchor="middle" x="324" y="-309.68" font-family="Times,serif" font-size="14.00">treat</text>
<text text-anchor="middle" x="324" y="-294.68" font-family="Times,serif" font-size="14.00">~</text>
<text text-anchor="middle" x="324" y="-279.68" font-family="Times,serif" font-size="14.00">Bernoulli</text>
</g>
<!-- covariates_data&#45;&gt;treat -->
<g id="edge3" class="edge">
<title>covariates_data&#45;&gt;treat</title>
<path fill="none" stroke="black" d="M178.66,-393.62C192.21,-380.27 209.74,-364.21 227,-351.86 239.9,-342.63 254.61,-333.88 268.61,-326.26"/>
<polygon fill="black" stroke="black" points="270.5,-329.22 277.68,-321.43 267.21,-323.04 270.5,-329.22"/>
</g>
<!-- mu_earnings -->
<g id="node10" class="node">
<title>mu_earnings</title>
<polygon fill="none" stroke="black" points="382,-213.93 268,-213.93 268,-160.93 382,-160.93 382,-213.93"/>
<text text-anchor="middle" x="325" y="-198.73" font-family="Times,serif" font-size="14.00">mu_earnings</text>
<text text-anchor="middle" x="325" y="-183.73" font-family="Times,serif" font-size="14.00">~</text>
<text text-anchor="middle" x="325" y="-168.73" font-family="Times,serif" font-size="14.00">Deterministic</text>
</g>
<!-- covariates_data&#45;&gt;mu_earnings -->
<g id="edge6" class="edge">
<title>covariates_data&#45;&gt;mu_earnings</title>
<path fill="none" stroke="black" d="M168.74,-393.7C187.65,-361.56 222.18,-305.31 257,-260.91 267.67,-247.3 280.4,-233.24 291.95,-221.17"/>
<polygon fill="black" stroke="black" points="294.52,-223.55 298.96,-213.93 289.49,-218.68 294.52,-223.55"/>
</g>
<!-- beta_covariate_earnings -->
<g id="node2" class="node">
<title>beta_covariate_earnings</title>
<ellipse fill="none" stroke="black" cx="813" cy="-420.34" rx="134.2" ry="37.45"/>
<text text-anchor="middle" x="813" y="-431.64" font-family="Times,serif" font-size="14.00">beta_covariate_earnings</text>
<text text-anchor="middle" x="813" y="-416.64" font-family="Times,serif" font-size="14.00">~</text>
<text text-anchor="middle" x="813" y="-401.64" font-family="Times,serif" font-size="14.00">Normal</text>
</g>
<!-- beta_covariate_earnings&#45;&gt;mu_earnings -->
<g id="edge4" class="edge">
<title>beta_covariate_earnings&#45;&gt;mu_earnings</title>
<path fill="none" stroke="black" d="M756.45,-386.34C730.67,-373.02 699.2,-359.12 669,-351.86 643.06,-345.63 451.21,-358.64 429,-343.86 395.24,-321.39 413.36,-294.74 391,-260.91 381.84,-247.05 370.07,-233.22 359.01,-221.41"/>
<polygon fill="black" stroke="black" points="361.32,-218.77 351.88,-213.97 356.27,-223.61 361.32,-218.77"/>
</g>
<!-- beta_covariate_treat -->
<g id="node3" class="node">
<title>beta_covariate_treat</title>
<ellipse fill="none" stroke="black" cx="545" cy="-420.34" rx="115.02" ry="37.45"/>
<text text-anchor="middle" x="545" y="-431.64" font-family="Times,serif" font-size="14.00">beta_covariate_treat</text>
<text text-anchor="middle" x="545" y="-416.64" font-family="Times,serif" font-size="14.00">~</text>
<text text-anchor="middle" x="545" y="-401.64" font-family="Times,serif" font-size="14.00">Normal</text>
</g>
<!-- beta_covariate_treat&#45;&gt;treat -->
<g id="edge2" class="edge">
<title>beta_covariate_treat&#45;&gt;treat</title>
<path fill="none" stroke="black" d="M491.17,-387.16C469.77,-375.15 444.66,-361.98 421,-351.86 410.27,-347.27 406.6,-348.74 396,-343.86 388.05,-340.2 379.9,-335.83 372.07,-331.29"/>
<polygon fill="black" stroke="black" points="373.78,-328.23 363.4,-326.11 370.19,-334.24 373.78,-328.23"/>
</g>
<!-- intercept_treat -->
<g id="node4" class="node">
<title>intercept_treat</title>
<ellipse fill="none" stroke="black" cx="324" cy="-420.34" rx="87.86" ry="37.45"/>
<text text-anchor="middle" x="324" y="-431.64" font-family="Times,serif" font-size="14.00">intercept_treat</text>
<text text-anchor="middle" x="324" y="-416.64" font-family="Times,serif" font-size="14.00">~</text>
<text text-anchor="middle" x="324" y="-401.64" font-family="Times,serif" font-size="14.00">Normal</text>
</g>
<!-- intercept_treat&#45;&gt;treat -->
<g id="edge1" class="edge">
<title>intercept_treat&#45;&gt;treat</title>
<path fill="none" stroke="black" d="M324,-382.69C324,-371.29 324,-358.55 324,-346.54"/>
<polygon fill="black" stroke="black" points="327.5,-346.21 324,-336.21 320.5,-346.21 327.5,-346.21"/>
</g>
<!-- sigma_earnings -->
<g id="node5" class="node">
<title>sigma_earnings</title>
<ellipse fill="none" stroke="black" cx="491" cy="-187.43" rx="90.52" ry="37.45"/>
<text text-anchor="middle" x="491" y="-198.73" font-family="Times,serif" font-size="14.00">sigma_earnings</text>
<text text-anchor="middle" x="491" y="-183.73" font-family="Times,serif" font-size="14.00">~</text>
<text text-anchor="middle" x="491" y="-168.73" font-family="Times,serif" font-size="14.00">Halfnormal</text>
</g>
<!-- earnings -->
<g id="node9" class="node">
<title>earnings</title>
<ellipse fill="lightgrey" stroke="black" cx="325" cy="-76.48" rx="55.72" ry="37.45"/>
<text text-anchor="middle" x="325" y="-87.78" font-family="Times,serif" font-size="14.00">earnings</text>
<text text-anchor="middle" x="325" y="-72.78" font-family="Times,serif" font-size="14.00">~</text>
<text text-anchor="middle" x="325" y="-57.78" font-family="Times,serif" font-size="14.00">Normal</text>
</g>
<!-- sigma_earnings&#45;&gt;earnings -->
<g id="edge10" class="edge">
<title>sigma_earnings&#45;&gt;earnings</title>
<path fill="none" stroke="black" d="M443.43,-155.21C421.27,-140.66 394.96,-123.4 372.78,-108.84"/>
<polygon fill="black" stroke="black" points="374.46,-105.75 364.18,-103.19 370.62,-111.61 374.46,-105.75"/>
</g>
<!-- intercept_earnings -->
<g id="node6" class="node">
<title>intercept_earnings</title>
<ellipse fill="none" stroke="black" cx="545" cy="-298.38" rx="106.55" ry="37.45"/>
<text text-anchor="middle" x="545" y="-309.68" font-family="Times,serif" font-size="14.00">intercept_earnings</text>
<text text-anchor="middle" x="545" y="-294.68" font-family="Times,serif" font-size="14.00">~</text>
<text text-anchor="middle" x="545" y="-279.68" font-family="Times,serif" font-size="14.00">Normal</text>
</g>
<!-- intercept_earnings&#45;&gt;mu_earnings -->
<g id="edge7" class="edge">
<title>intercept_earnings&#45;&gt;mu_earnings</title>
<path fill="none" stroke="black" d="M480.86,-268.33C453.04,-255.44 420.21,-239.83 391,-224.91 387.2,-222.96 383.29,-220.92 379.37,-218.84"/>
<polygon fill="black" stroke="black" points="380.7,-215.58 370.24,-213.94 377.39,-221.75 380.7,-215.58"/>
</g>
<!-- beta_treat_earnings -->
<g id="node7" class="node">
<title>beta_treat_earnings</title>
<ellipse fill="none" stroke="black" cx="782" cy="-298.38" rx="112.36" ry="37.45"/>
<text text-anchor="middle" x="782" y="-309.68" font-family="Times,serif" font-size="14.00">beta_treat_earnings</text>
<text text-anchor="middle" x="782" y="-294.68" font-family="Times,serif" font-size="14.00">~</text>
<text text-anchor="middle" x="782" y="-279.68" font-family="Times,serif" font-size="14.00">Normal</text>
</g>
<!-- beta_treat_earnings&#45;&gt;mu_earnings -->
<g id="edge8" class="edge">
<title>beta_treat_earnings&#45;&gt;mu_earnings</title>
<path fill="none" stroke="black" d="M703.07,-271.61C689.15,-267.63 674.73,-263.87 661,-260.91 542.67,-235.35 505.96,-262.84 391,-224.91 385.72,-223.16 380.37,-220.99 375.12,-218.59"/>
<polygon fill="black" stroke="black" points="376.35,-215.29 365.83,-214.04 373.27,-221.58 376.35,-215.29"/>
</g>
<!-- treat&#45;&gt;mu_earnings -->
<g id="edge5" class="edge">
<title>treat&#45;&gt;mu_earnings</title>
<path fill="none" stroke="black" d="M324.34,-260.8C324.44,-249.06 324.56,-236.08 324.67,-224.38"/>
<polygon fill="black" stroke="black" points="328.17,-224.11 324.76,-214.08 321.17,-224.05 328.17,-224.11"/>
</g>
<!-- mu_earnings&#45;&gt;earnings -->
<g id="edge9" class="edge">
<title>mu_earnings&#45;&gt;earnings</title>
<path fill="none" stroke="black" d="M325,-160.89C325,-149.98 325,-136.89 325,-124.35"/>
<polygon fill="black" stroke="black" points="328.5,-124 325,-114 321.5,-124 328.5,-124"/>
</g>
</g>
</svg>
