<?xml version="1.0" encoding="UTF-8" standalone="no"?>
<!DOCTYPE svg PUBLIC "-//W3C//DTD SVG 1.1//EN"
 "http://www.w3.org/Graphics/SVG/1.1/DTD/svg11.dtd">
<!-- Generated by graphviz version 2.42.4 (0)
 -->
<!-- Pages: 1 -->
<svg width="131pt" height="188pt"
 viewBox="0.00 0.00 131.29 188.00" xmlns="http://www.w3.org/2000/svg" xmlns:xlink="http://www.w3.org/1999/xlink">
<g id="graph0" class="graph" transform="scale(1 1) rotate(0) translate(4 184)">
<polygon fill="white" stroke="transparent" points="-4,4 -4,-184 127.29,-184 127.29,4 -4,4"/>
<!-- treat -->
<g id="node1" class="node">
<title>treat</title>
<ellipse fill="#2a2eec" fill-opacity="0.501961" stroke="#2a2eec" stroke-opacity="0.501961" cx="33.8" cy="-90" rx="33.6" ry="18"/>
<text text-anchor="middle" x="33.8" y="-86.3" font-family="Times,serif" font-size="14.00">treat</text>
</g>
<!-- re78 -->
<g id="node2" class="node">
<title>re78</title>
<ellipse fill="#fa7c17" fill-opacity="0.501961" stroke="#fa7c17" stroke-opacity="0.501961" cx="64.8" cy="-18" rx="32.49" ry="18"/>
<text text-anchor="middle" x="64.8" y="-14.3" font-family="Times,serif" font-size="14.00">re78</text>
</g>
<!-- treat&#45;&gt;re78 -->
<g id="edge1" class="edge">
<title>treat&#45;&gt;re78</title>
<path fill="none" stroke="black" d="M41.14,-72.41C44.72,-64.34 49.11,-54.43 53.13,-45.35"/>
<polygon fill="black" stroke="black" points="56.44,-46.52 57.29,-35.96 50.04,-43.68 56.44,-46.52"/>
</g>
<!-- covariates -->
<g id="node3" class="node">
<title>covariates</title>
<ellipse fill="none" stroke="black" cx="64.8" cy="-162" rx="58.49" ry="18"/>
<text text-anchor="middle" x="64.8" y="-158.3" font-family="Times,serif" font-size="14.00">covariates</text>
</g>
<!-- covariates&#45;&gt;treat -->
<g id="edge2" class="edge">
<title>covariates&#45;&gt;treat</title>
<path fill="none" stroke="black" d="M57.29,-144.05C53.71,-135.97 49.35,-126.12 45.36,-117.11"/>
<polygon fill="black" stroke="black" points="48.48,-115.52 41.23,-107.79 42.08,-118.35 48.48,-115.52"/>
</g>
<!-- covariates&#45;&gt;re78 -->
<g id="edge3" class="edge">
<title>covariates&#45;&gt;re78</title>
<path fill="none" stroke="black" d="M69.67,-143.98C72.36,-133.67 75.43,-120.19 76.8,-108 78.57,-92.1 78.57,-87.9 76.8,-72 75.84,-63.43 74.04,-54.22 72.11,-45.93"/>
<polygon fill="black" stroke="black" points="75.46,-44.89 69.67,-36.02 68.67,-46.57 75.46,-44.89"/>
</g>
</g>
</svg>
